<?xml version="1.0" encoding="UTF-8" standalone="no"?>
<svg
   xmlns:dc="http://purl.org/dc/elements/1.1/"
   xmlns:cc="http://creativecommons.org/ns#"
   xmlns:rdf="http://www.w3.org/1999/02/22-rdf-syntax-ns#"
   xmlns:svg="http://www.w3.org/2000/svg"
   xmlns="http://www.w3.org/2000/svg"
   xmlns:sodipodi="http://sodipodi.sourceforge.net/DTD/sodipodi-0.dtd"
   xmlns:inkscape="http://www.inkscape.org/namespaces/inkscape"
   version="1.1"
   x="0px"
   y="0px"
   viewBox="0 0 35.50883 28.618788"
   xml:space="preserve"
   id="svg246"
   sodipodi:docname="noun_life_2941935.svg"
   width="35.508831"
   height="28.618788"
   inkscape:version="0.92.4 (5da689c313, 2019-01-14)"><metadata
     id="metadata252"><rdf:RDF><cc:Work
         rdf:about=""><dc:format>image/svg+xml</dc:format><dc:type
           rdf:resource="http://purl.org/dc/dcmitype/StillImage" /><dc:title></dc:title></cc:Work></rdf:RDF></metadata><defs
     id="defs250" /><sodipodi:namedview
     pagecolor="#ffffff"
     bordercolor="#666666"
     borderopacity="1"
     objecttolerance="10"
     gridtolerance="10"
     guidetolerance="10"
     inkscape:pageopacity="0"
     inkscape:pageshadow="2"
     inkscape:window-width="2560"
     inkscape:window-height="1361"
     id="namedview248"
     showgrid="false"
     fit-margin-top="0"
     fit-margin-left="0"
     fit-margin-right="0"
     fit-margin-bottom="0"
     inkscape:zoom="19.024"
     inkscape:cx="3.1376774"
     inkscape:cy="28.111075"
     inkscape:window-x="1911"
     inkscape:window-y="-9"
     inkscape:window-maximized="1"
     inkscape:current-layer="svg246" /><g
     id="g236"
     transform="matrix(0.37311689,0,0,0.40883982,-0.90737828,-6.1325973)"><g
       id="g190"><path
         d="m 9.4,73.3 c -1,0 -1.8,0.8 -1.8,1.8 0,1 0.8,1.8 1.8,1.8 h 30.5 c -0.1,-0.6 -0.1,-1.2 -0.1,-1.8 0,-0.6 0,-1.2 0.1,-1.8 z"
         id="path188"
         inkscape:connector-curvature="0" /></g><g
       id="g194"><path
         d="m 87.1,66.6 c -0.7,-0.7 -1.9,-0.7 -2.6,0 -0.7,0.7 -0.7,1.9 0,2.6 l 4.1,4.1 h -24 c 0.1,0.6 0.1,1.2 0.1,1.8 0,0.6 0,1.2 -0.1,1.8 h 24 L 84.5,81 c -0.7,0.7 -0.7,1.9 0,2.6 0.4,0.4 0.8,0.5 1.3,0.5 0.5,0 0.9,-0.2 1.3,-0.5 l 7.2,-7.2 c 0.7,-0.7 0.7,-1.9 0,-2.6 z"
         id="path192"
         inkscape:connector-curvature="0" /></g><g
       id="g198"><path
         d="m 52.3,65.4 c -5.4,0 -9.8,4.4 -9.8,9.8 0,5.4 4.4,9.8 9.8,9.8 5.4,0 9.8,-4.4 9.8,-9.8 -0.1,-5.5 -4.4,-9.8 -9.8,-9.8 z m 3.9,11.1 h -3.9 c -0.7,0 -1.4,-0.6 -1.4,-1.4 v -4.9 c 0,-0.7 0.6,-1.4 1.4,-1.4 0.7,0 1.4,0.6 1.4,1.4 v 3.6 h 2.6 c 0.7,0 1.4,0.6 1.4,1.4 -0.2,0.7 -0.8,1.3 -1.5,1.3 z"
         id="path196"
         inkscape:connector-curvature="0" /></g><g
       id="g202"><path
         d="m 75.4,43.5 v 17.2 c 0,0.5 0.4,1 1,1 0.6,0 1,-0.4 1,-1 V 43.1 c -0.1,0 -0.1,0.1 -0.2,0.1 -0.4,0.2 -0.9,0.3 -1.3,0.3 -0.2,0 -0.3,0 -0.5,0 z"
         id="path200"
         inkscape:connector-curvature="0" /></g><g
       id="g206"><path
         d="m 66.4,45.7 0.3,13.8 c 0,1.2 1,2.2 2.3,2.2 1.2,0 2.2,-1 2.2,-2.3 L 70.7,34.7 71.8,35.8 74,41 c 0.3,0.8 1.1,1.3 1.9,1.3 0.3,0 0.6,-0.1 0.8,-0.2 1.1,-0.5 1.5,-1.7 1.1,-2.7 L 75.4,33.9 C 75.3,33.7 75.1,33.4 75,33.2 l -3.3,-3.3 c -1.1,-1.1 -2.5,-1.7 -4.1,-1.7 h -4 c -1.4,0 -2.7,0.4 -3.9,1.1 l -5.4,3.4 c -1,0.6 -1.3,1.8 -0.7,2.8 l 3.3,5.7 c 0.6,1 1.9,1.3 2.9,0.8 0.3,-0.2 0.5,-0.4 0.7,-0.7 l -0.3,18.1 c 0,1.2 0.9,2.2 2.2,2.3 0,0 0,0 0,0 1.2,0 2.2,-1 2.2,-2.2 l 0.3,-13.8 z m -5.9,-6.6 -2.3,-3.9 2.4,-1.5 z"
         id="path204"
         inkscape:connector-curvature="0" /></g><g
       id="g210"><path
         d="m 60.7,21.9 c 0,0 0,0 0,0 0,2.8 2.2,5 4.9,5 2.7,0 4.9,-2.2 4.9,-4.9 0,0 0,0 0,0 -1.3,0.2 -2.9,0.4 -4.9,0.4 -2,-0.1 -3.7,-0.3 -4.9,-0.5 z"
         id="path208"
         inkscape:connector-curvature="0" /></g><g
       id="g214"><path
         d="m 65.6,21 c 3.8,0 6.9,-0.6 6.9,-1.4 0,-0.4 -0.9,-0.8 -2.4,-1 L 69.3,16.1 C 69.1,15.5 68.5,15 67.8,15 h -4.3 c -0.7,0 -1.3,0.4 -1.5,1.1 l -0.8,2.5 c -1.4,0.2 -2.4,0.6 -2.4,1 -0.1,0.8 3,1.4 6.8,1.4 z"
         id="path212"
         inkscape:connector-curvature="0" /></g><g
       id="g218"><path
         d="m 8.9,59.4 c 0,1 0.8,1.8 1.8,1.8 1,0 1.8,-0.8 1.8,-1.8 v -7.9 h 2.7 v 7.9 c 0,1 0.8,1.8 1.8,1.8 1,0 1.8,-0.8 1.8,-1.8 V 44.2 l 5.9,-6.9 c 0.7,-0.8 0.6,-1.9 -0.2,-2.6 -0.8,-0.7 -1.9,-0.6 -2.6,0.2 L 17.7,40 c -0.5,0.5 -1.1,0.9 -1.9,0.9 H 12 c -0.7,0 -1.4,-0.3 -1.9,-0.9 L 5.7,34.9 C 5,34.1 3.9,34 3.1,34.7 2.3,35.4 2.2,36.5 2.9,37.3 l 5.9,6.9 v 15.2 z"
         id="path216"
         inkscape:connector-curvature="0" /></g><g
       id="g222"><circle
         cx="13.9"
         cy="34.599998"
         r="4.5"
         id="circle220" /></g><g
       id="g226"><path
         d="M 45,59.4 V 37.1 l 3,4.3 c 0.7,1 2.1,1.3 3.1,0.6 1,-0.7 1.3,-2.1 0.6,-3.1 L 45.9,30.4 C 44.9,28.9 43.2,28 41.4,28 h -3.7 c -1.8,0 -3.5,0.9 -4.5,2.4 l -5.8,8.5 c -0.7,1 -0.4,2.4 0.6,3.1 0.4,0.3 0.8,0.4 1.2,0.4 0.7,0 1.4,-0.3 1.8,-1 l 3,-4.3 v 22.3 c 0,1.2 1,2.2 2.2,2.2 1.2,0 2.2,-1 2.2,-2.2 V 45.7 h 2.1 v 13.7 c 0,1.2 1,2.2 2.2,2.2 1.2,0 2.3,-1 2.3,-2.2 z"
         id="path224"
         inkscape:connector-curvature="0" /></g><g
       id="g230"><circle
         cx="39.5"
         cy="21.9"
         r="4.9000001"
         id="circle228" /></g><g
       id="g234"><path
         d="m 96.6,37.3 h -4.8 v -4.7 c 0,-0.5 -0.4,-0.9 -0.9,-0.9 h -2.8 c -0.5,0 -0.9,0.4 -0.9,0.9 v 4.7 h -4.8 c -0.5,0 -0.9,0.4 -0.9,0.9 V 41 c 0,0.5 0.4,0.9 0.9,0.9 h 4.8 v 18.8 c 0,0.5 0.4,0.9 0.9,0.9 H 91 c 0.5,0 0.9,-0.4 0.9,-0.9 V 41.8 h 4.8 c 0.5,0 0.9,-0.4 0.9,-0.9 v -2.8 c -0.1,-0.4 -0.5,-0.8 -1,-0.8 z"
         id="path232"
         inkscape:connector-curvature="0" /></g></g></svg>