<?xml version="1.0" encoding="UTF-8" standalone="no"?>
<svg
   xmlns:dc="http://purl.org/dc/elements/1.1/"
   xmlns:cc="http://creativecommons.org/ns#"
   xmlns:rdf="http://www.w3.org/1999/02/22-rdf-syntax-ns#"
   xmlns:svg="http://www.w3.org/2000/svg"
   xmlns="http://www.w3.org/2000/svg"
   xmlns:sodipodi="http://sodipodi.sourceforge.net/DTD/sodipodi-0.dtd"
   xmlns:inkscape="http://www.inkscape.org/namespaces/inkscape"
   data-name="Layer 1"
   viewBox="0 0 70.07547 97.690002"
   x="0px"
   y="0px"
   version="1.1"
   id="svg317"
   sodipodi:docname="leadership.svg"
   width="70.07547"
   height="97.690002"
   inkscape:version="0.92.4 (5da689c313, 2019-01-14)">
  <metadata
     id="metadata323">
    <rdf:RDF>
      <cc:Work
         rdf:about="">
        <dc:format>image/svg+xml</dc:format>
        <dc:type
           rdf:resource="http://purl.org/dc/dcmitype/StillImage" />
        <dc:title>Artboard 11</dc:title>
      </cc:Work>
    </rdf:RDF>
  </metadata>
  <defs
     id="defs321" />
  <sodipodi:namedview
     pagecolor="#ffffff"
     bordercolor="#666666"
     borderopacity="1"
     objecttolerance="10"
     gridtolerance="10"
     guidetolerance="10"
     inkscape:pageopacity="0"
     inkscape:pageshadow="2"
     inkscape:window-width="2560"
     inkscape:window-height="1361"
     id="namedview319"
     showgrid="false"
     fit-margin-top="0"
     fit-margin-left="0"
     fit-margin-right="0"
     fit-margin-bottom="0"
     inkscape:zoom="9.512"
     inkscape:cx="35.036053"
     inkscape:cy="36.350004"
     inkscape:window-x="1911"
     inkscape:window-y="-9"
     inkscape:window-maximized="1"
     inkscape:current-layer="svg317" />
  <title
     id="title309">Artboard 11</title>
  <path
     d="m 35.036053,7.84 a 2,2 0 0 1 -2,-2 V 2 a 2,2 0 1 1 4,0 v 3.84 a 2,2 0 0 1 -2,2 z m -20,12.12 a 2,2 0 0 0 2,2 h 3.89 a 2,2 0 0 0 2,-2 2,2 0 0 0 -2,-2 h -3.89 a 2,2 0 0 0 -2,2 z m 37.94,-2 h -3.86 a 2,2 0 0 0 0,4 h 3.92 a 2,2 0 0 0 1.42,-0.59 2,2 0 0 0 0.58,-1.38 1.87,1.87 0 0 0 -0.51,-1.4 2,2 0 0 0 -1.49,-0.63 z m -5.21,-12.74 a 2,2 0 0 0 -1.44,0.62 l -2.75,2.72 a 2,2 0 0 0 0,2.89 2.23,2.23 0 0 0 1.42,0.56 2,2 0 0 0 1.41,-0.59 l 2.75,-2.75 a 2,2 0 0 0 -1.43,-3.45 z m -24.07,0.62 a 2.0117468,2.0117468 0 1 0 -2.86,2.83 l 2.79,2.75 a 2.0117965,2.0117965 0 0 0 2.82,-2.87 z m 2.78,14.44 a 8.56,8.56 0 1 0 8.56,-8.59 8.56,8.56 0 0 0 -8.55,8.56 z M 0.03605299,48.59 1.796053,64.12 a 5.15,5.15 0 0 0 3.35,4.25 l 3,27.22 a 2.35,2.35 0 0 0 2.34,2.09 h 4.71 a 2.35,2.35 0 0 0 2.34,-2.09 l 3,-27.18 a 5.16,5.16 0 0 0 1.87,-1.15 l -0.22,-2 a 10.08,10.08 0 0 1 -4.22,-7.14 l -1.7,-15 -2.8,3.5 a 0.74,0.74 0 0 1 -1.15,0 l -3.71,-4.64 a 0.3,0.3 0 0 0 -0.23,-0.11 h -2.34 A 6.06,6.06 0 0 0 0.03605299,48.59 Z M 5.696053,32.15 a 7.17,7.17 0 0 0 7.17,7.17 7.09,7.09 0 0 0 2.87,-0.61 11,11 0 0 1 3.89,-8.93 7.16,7.16 0 0 0 -13.93,2.37 z m 58.34,9.69 h -2.33 a 0.3,0.3 0 0 0 -0.23,0.11 l -3.71,4.64 a 0.74,0.74 0 0 1 -1.15,0 l -2.71,-3.38 -1.69,14.88 a 10.18,10.18 0 0 1 -4.36,7.22 l -0.2,1.84 a 5.13,5.13 0 0 0 1.87,1.23 l 3,27.22 a 2.35,2.35 0 0 0 2.34,2.09 h 4.67 a 2.35,2.35 0 0 0 2.34,-2.09 l 3,-27.18 a 5.14,5.14 0 0 0 3.47,-4.29 l 1.69,-15.54 a 6.06,6.06 0 0 0 -6,-6.75 z m -6.8,-16.85 a 7.16,7.16 0 0 0 -6.76,4.8 11,11 0 0 1 3.89,8.93 7.09,7.09 0 0 0 2.87,0.61 7.17,7.17 0 1 0 0,-14.34 z m -9,32.65 2.1,-18.54 a 7.23,7.23 0 0 0 -7.19,-8 h -2.78 a 0.36,0.36 0 0 0 -0.28,0.13 l -4.43,5.53 a 0.88,0.88 0 0 1 -1.37,0 l -4.43,-5.53 a 0.35,0.35 0 0 0 -0.28,-0.13 h -2.66 a 7.23,7.23 0 0 0 -7.19,8 l 2.11,18.54 a 6.15,6.15 0 0 0 4,5.08 l 3.54,32.48 a 2.81,2.81 0 0 0 2.79,2.49 h 5.62 a 2.81,2.81 0 0 0 2.79,-2.49 l 3.54,-32.44 a 6.14,6.14 0 0 0 4.12,-5.12 z"
     id="path311"
     inkscape:connector-curvature="0" />
</svg>
