<?xml version="1.0" encoding="UTF-8" standalone="no"?>
<svg
   xmlns:dc="http://purl.org/dc/elements/1.1/"
   xmlns:cc="http://creativecommons.org/ns#"
   xmlns:rdf="http://www.w3.org/1999/02/22-rdf-syntax-ns#"
   xmlns:svg="http://www.w3.org/2000/svg"
   xmlns="http://www.w3.org/2000/svg"
   xmlns:sodipodi="http://sodipodi.sourceforge.net/DTD/sodipodi-0.dtd"
   xmlns:inkscape="http://www.inkscape.org/namespaces/inkscape"
   version="1.1"
   x="0px"
   y="0px"
   viewBox="0 0 62 62"
   xml:space="preserve"
   id="svg30"
   sodipodi:docname="agile.svg"
   width="62"
   height="62"
   inkscape:version="0.92.4 (5da689c313, 2019-01-14)"><metadata
     id="metadata36"><rdf:RDF><cc:Work
         rdf:about=""><dc:format>image/svg+xml</dc:format><dc:type
           rdf:resource="http://purl.org/dc/dcmitype/StillImage" /><dc:title></dc:title></cc:Work></rdf:RDF></metadata><defs
     id="defs34" /><sodipodi:namedview
     pagecolor="#ffffff"
     bordercolor="#666666"
     borderopacity="1"
     objecttolerance="10"
     gridtolerance="10"
     guidetolerance="10"
     inkscape:pageopacity="0"
     inkscape:pageshadow="2"
     inkscape:window-width="2560"
     inkscape:window-height="1361"
     id="namedview32"
     showgrid="false"
     fit-margin-top="0"
     fit-margin-left="0"
     fit-margin-right="0"
     fit-margin-bottom="0"
     inkscape:zoom="14.8625"
     inkscape:cx="31"
     inkscape:cy="23"
     inkscape:window-x="1911"
     inkscape:window-y="-9"
     inkscape:window-maximized="1"
     inkscape:current-layer="svg30" /><path
     d="M 55.993,41.211 C 57.32,37.971 58,34.543 58,31 58,17.278 47.531,5.667 34,4.165 V 0 L 28.508,4.119 C 14.741,5.383 4,17.129 4,31 c 0,1.121 0.084,2.245 0.222,3.354 C 1.6570001,36.37 0,39.492 0,43 c 0,4.264 2.4440001,7.961 6,9.786 V 57 c 0,1.654 1.3460001,3 3.0000001,3 H 13 c 1.654,0 3,-1.346 3,-3 V 53.429 C 20.445,56.411 25.598,58 31,58 h 11.521 c 2.019,2.441 5.07,4 8.479,4 6.065,0 11,-4.935 11,-11 0,-4.267 -2.447,-7.965 -6.007,-9.789 z M 32.925,6.073 C 45.864,7.057 56,18.007 56,31 56,34.284 55.369,37.461 54.139,40.462 53.144,40.165 52.091,40 51,40 50.642,40 50.288,40.02 49.939,40.054 51.285,37.24 52,34.152 52,31 52,20.157 43.874,11.173 33.099,10.104 L 32,9.995 V 12 L 26.667,8 32,4 V 6.002 Z M 40.051,50 H 31 C 27.499,50 24.115,49.04 21.15,47.236 21.696,45.931 22,44.501 22,43 22,42.662 21.979,42.33 21.949,42 H 42 V 22 H 36 V 40 H 34 V 26 H 28 V 40 H 26 V 30 h -6 v 6.695 C 18.198,34.131 15.336,32.366 12.052,32.053 12.033,31.701 12,31.35 12,31 12,21.256 19.219,13.217 28.846,12.134 L 34,16 v -3.766 c 9.196,1.447 16,9.328 16,18.766 0,3.399 -0.912,6.717 -2.625,9.627 -3.985,1.397 -6.93,5.018 -7.324,9.373 z M 22,40 v -8 h 2 v 8 z m 10,0 H 30 V 28 h 2 z m 6,0 V 24 h 2 V 40 Z M 6,31 C 6,19.416 14.091,9.434 25.029,6.728 L 23.333,8 26.624,10.469 C 16.998,12.485 9.9999998,20.916 9.9999998,31 c 0,0.348 0.034,0.698 0.052,1.048 C 8.6420001,32.169 7.3110001,32.56 6.1029999,33.165 6.0409999,32.445 6,31.722 6,31 Z M 2.0000001,43 c 0,-4.962 4.0379998,-9 8.9999999,-9 4.962,0 9,4.038 9,9 0,3.909 -2.51,7.235 -6,8.475 v -6.659 c 0.314,0.112 0.648,0.184 1,0.184 1.654,0 3,-1.346 3,-3 0,-1.654 -1.346,-3 -3,-3 -1.302,0 -2.402,0.839 -2.816,2 H 9.8149998 C 9.4019998,39.839 8.3020001,39 7,39 c -1.654,0 -3,1.346 -3,3 0,1.654 1.346,3 3,3 0.3520001,0 0.6860001,-0.072 1.0000001,-0.184 v 6.659 c -3.4900001,-1.24 -6,-4.566 -6,-8.475 z m 7.9999997,0 H 12 v 8.941 C 11.671,51.978 11.338,52 11,52 10.662,52 10.329,51.978 9.9999998,51.941 Z M 14,42 c 0,-0.551 0.449,-1 1,-1 0.551,0 1,0.449 1,1 0,0.551 -0.449,1 -1,1 -0.551,0 -1,-0.449 -1,-1 z m -5.9999999,0 c 0,0.551 -0.449,1 -1.0000001,1 -0.5510001,0 -1,-0.449 -1,-1 0,-0.551 0.4489999,-1 1,-1 0.5510001,0 1.0000001,0.449 1.0000001,1 z M 13,58 H 9.0000001 c -0.551,0 -1,-0.449 -1,-1 V 53.574 C 8.9550001,53.845 9.9589998,54 11,54 c 1.041,0 2.045,-0.155 3,-0.426 V 57 c 0,0.551 -0.449,1 -1,1 z m 18,-2 c -4.895,0 -9.57,-1.406 -13.625,-4.053 1.116,-0.798 2.078,-1.795 2.831,-2.945 C 23.462,50.959 27.168,52 31,52 h 9.051 c 0.13,1.43 0.537,2.779 1.164,4 z m 15.068,2.519 0.304,-2.434 C 46.663,53.756 48.653,52 51,52 c 2.347,0 4.337,1.756 4.628,4.085 l 0.304,2.434 C 54.514,59.453 52.821,60 51,60 49.179,60 47.486,59.453 46.068,58.519 Z M 49,48 c 0,-1.103 0.897,-2 2,-2 1.103,0 2,0.897 2,2 0,1.103 -0.897,2 -2,2 -1.103,0 -2,-0.897 -2,-2 z m 8.749,8.934 -0.137,-1.096 C 57.327,53.553 55.896,51.654 53.942,50.688 54.593,49.976 55,49.038 55,48 c 0,-2.206 -1.794,-4 -4,-4 -2.206,0 -4,1.794 -4,4 0,1.038 0.407,1.976 1.057,2.687 -1.954,0.966 -3.384,2.865 -3.67,5.15 L 44.25,56.933 C 42.855,55.348 42,53.274 42,51 c 0,-4.962 4.038,-9 9,-9 4.962,0 9,4.038 9,9 0,2.274 -0.855,4.348 -2.251,5.934 z"
     id="path24"
     inkscape:connector-curvature="0" /><text
     x="-1"
     y="83"
     font-size="5px"
     font-weight="bold"
     id="text28"
     style="font-weight:bold;font-size:5px;font-family:'Helvetica Neue', Helvetica, Arial-Unicode, Arial, Sans-serif;fill:#000000">from the Noun Project</text>
</svg>