<?xml version="1.0" encoding="UTF-8" standalone="no"?>
<svg
   xmlns:dc="http://purl.org/dc/elements/1.1/"
   xmlns:cc="http://creativecommons.org/ns#"
   xmlns:rdf="http://www.w3.org/1999/02/22-rdf-syntax-ns#"
   xmlns:svg="http://www.w3.org/2000/svg"
   xmlns="http://www.w3.org/2000/svg"
   xmlns:sodipodi="http://sodipodi.sourceforge.net/DTD/sodipodi-0.dtd"
   xmlns:inkscape="http://www.inkscape.org/namespaces/inkscape"
   version="1.1"
   x="0px"
   y="0px"
   viewBox="0 0 128 111.5"
   xml:space="preserve"
   id="svg799"
   sodipodi:docname="Scrum_603658.svg"
   width="128"
   height="111.5"
   inkscape:version="0.92.4 (5da689c313, 2019-01-14)"><metadata
     id="metadata805"><rdf:RDF><cc:Work
         rdf:about=""><dc:format>image/svg+xml</dc:format><dc:type
           rdf:resource="http://purl.org/dc/dcmitype/StillImage" /><dc:title></dc:title></cc:Work></rdf:RDF></metadata><defs
     id="defs803" /><sodipodi:namedview
     pagecolor="#ffffff"
     bordercolor="#666666"
     borderopacity="1"
     objecttolerance="10"
     gridtolerance="10"
     guidetolerance="10"
     inkscape:pageopacity="0"
     inkscape:pageshadow="2"
     inkscape:window-width="2560"
     inkscape:window-height="1361"
     id="namedview801"
     showgrid="false"
     fit-margin-top="0"
     fit-margin-left="0"
     fit-margin-right="0"
     fit-margin-bottom="0"
     inkscape:zoom="7.43125"
     inkscape:cx="64"
     inkscape:cy="39.7"
     inkscape:window-x="1911"
     inkscape:window-y="-9"
     inkscape:window-maximized="1"
     inkscape:current-layer="svg799" /><g
     id="g793"
     transform="translate(0,-8.2)"><path
       d="m 128,105.7 -12.7,-14 v 8.4 h -11.6 c -4.2,4.3 -9.4,8.6 -15.2,11.2 h 26.8 v 8.4 z"
       id="path787"
       inkscape:connector-curvature="0" /><path
       d="M 110.5,70.1 C 110.5,47.3 92,28.9 69.2,28.9 56.3,28.9 44.9,34.8 37.3,44 c 0,0 0,0 0,0 -2.6,3.3 -4.8,6.9 -6.3,10.6 -0.1,0.3 -0.2,0.5 -0.3,0.8 -0.2,0.6 -0.4,1.1 -0.6,1.7 -1.4,4.1 -2.1,8.5 -2.1,13.1 0,5.1 1,10 2.7,14.6 L 23,88.1 41.4,95.4 48.6,77 41.2,80.2 C 40,77 39.4,73.6 39.4,70.2 39.4,53.8 52.8,40.5 69.2,40.5 85.6,40.5 99,53.9 99,70.3 99,86.7 85.6,100.1 69.2,100.1 H 0 l 5.4,5.4 -5.4,5.8 h 69.2 c 22.7,0 41.3,-18.4 41.3,-41.2 z"
       id="path789"
       inkscape:connector-curvature="0" /><path
       d="m 27.4,51.9 c 0.3,0.2 0.6,0.4 0.8,0.6 1.5,-3.5 3.5,-6.8 5.9,-9.9 -0.3,-0.2 -0.5,-0.4 -0.8,-0.6 -1.8,-1.7 -3,-4.1 -3,-6.8 0,-5.1 4.2,-9.3 9.3,-9.3 0.8,0 1.6,0.1 2.3,0.3 L 38.3,33.4 46.2,30.7 57.1,27 56.8,26.2 50.7,8.2 47,15.7 c -2.4,-0.9 -4.9,-1.4 -7.4,-1.4 -11.5,0 -20.8,9.3 -20.8,20.8 0.1,6.9 3.5,13 8.6,16.8 z"
       id="path791"
       inkscape:connector-curvature="0" /></g></svg>