<?xml version="1.0" encoding="UTF-8" standalone="no"?>
<svg
   xmlns:dc="http://purl.org/dc/elements/1.1/"
   xmlns:cc="http://creativecommons.org/ns#"
   xmlns:rdf="http://www.w3.org/1999/02/22-rdf-syntax-ns#"
   xmlns:svg="http://www.w3.org/2000/svg"
   xmlns="http://www.w3.org/2000/svg"
   xmlns:sodipodi="http://sodipodi.sourceforge.net/DTD/sodipodi-0.dtd"
   xmlns:inkscape="http://www.inkscape.org/namespaces/inkscape"
   version="1.1"
   x="0px"
   y="0px"
   viewBox="0 0 99.999573 99.999893"
   xml:space="preserve"
   id="svg34"
   sodipodi:docname="design_1858826.svg"
   width="99.999573"
   height="99.999893"
   inkscape:version="0.92.4 (5da689c313, 2019-01-14)"><metadata
     id="metadata40"><rdf:RDF><cc:Work
         rdf:about=""><dc:format>image/svg+xml</dc:format><dc:type
           rdf:resource="http://purl.org/dc/dcmitype/StillImage" /><dc:title></dc:title></cc:Work></rdf:RDF></metadata><defs
     id="defs38" /><sodipodi:namedview
     pagecolor="#ffffff"
     bordercolor="#666666"
     borderopacity="1"
     objecttolerance="10"
     gridtolerance="10"
     guidetolerance="10"
     inkscape:pageopacity="0"
     inkscape:pageshadow="2"
     inkscape:window-width="2560"
     inkscape:window-height="1361"
     id="namedview36"
     showgrid="false"
     fit-margin-top="0"
     fit-margin-left="0"
     fit-margin-right="0"
     fit-margin-bottom="0"
     inkscape:zoom="9.512"
     inkscape:cx="49.999574"
     inkscape:cy="37.5"
     inkscape:window-x="1911"
     inkscape:window-y="-9"
     inkscape:window-maximized="1"
     inkscape:current-layer="svg34" /><g
     id="g28"
     transform="translate(-4.2645196e-4,-1.0400376e-4)"><path
       d="M 98.535,73.784 92.428,67.676 80.052,80.054 76.516,76.519 88.893,64.141 85.356,60.606 76.516,69.444 72.981,65.909 81.821,57.07 78.286,53.535 65.91,65.908 62.375,62.373 74.75,49.999 l -3.535,-3.535 -8.839,8.839 -3.536,-3.535 8.84,-8.839 -3.536,-3.536 -8.841,8.84 -3.535,-3.535 8.842,-8.839 -3.537,-3.537 -12.375,12.375 -3.536,-3.535 12.375,-12.375 -3.536,-3.537 -8.839,8.842 -3.535,-3.535 8.839,-8.842 -3.537,-3.536 -8.84,8.838 -3.535,-3.535 8.839,-8.838 L 35.857,11.108 23.484,23.481 19.949,19.946 32.323,7.572 26.216,1.465 c -1.955,-1.953 -5.12,-1.953 -7.073,0 L 1.468,19.146 c -2.003,1.998 -1.909,5.164 -0.003,7.07 l 72.322,72.319 c 1.953,1.953 5.117,1.953 7.07,0 l 17.68,-17.676 c 1.953,-1.952 1.949,-5.125 -0.002,-7.075 z m -22.019,13.34 c -0.977,0.977 -2.559,0.977 -3.535,0 -0.976,-0.977 -0.977,-2.56 0,-3.536 0.977,-0.976 2.559,-0.976 3.535,0.001 0.976,0.977 0.976,2.558 0,3.535 z M 97.678,22.678 c 1.953,-1.953 1.953,-5.12 0,-7.07 L 83.537,1.465 c -1.992,-1.992 -5.156,-1.914 -7.07,0 L 54.924,23.518 76.136,44.729 Z M 79.997,5 c 0.005,0 0.005,0 0.005,0 L 94.143,19.144 83.537,29.751 69.393,15.607 Z M 7.972,71.581 0.857,100 29.095,92.878 45.127,76.469 23.917,55.259 Z m 5.736,20.052 -4.485,-4.485 1.41,-5.636 8.73,8.708 z"
       id="path26"
       inkscape:connector-curvature="0" /></g></svg>