<?xml version="1.0" encoding="UTF-8" standalone="no"?>
<svg
   xmlns:dc="http://purl.org/dc/elements/1.1/"
   xmlns:cc="http://creativecommons.org/ns#"
   xmlns:rdf="http://www.w3.org/1999/02/22-rdf-syntax-ns#"
   xmlns:svg="http://www.w3.org/2000/svg"
   xmlns="http://www.w3.org/2000/svg"
   xmlns:sodipodi="http://sodipodi.sourceforge.net/DTD/sodipodi-0.dtd"
   xmlns:inkscape="http://www.inkscape.org/namespaces/inkscape"
   version="1.0"
   x="0px"
   y="0px"
   viewBox="0 0 80.000298 80.001427"
   enable-background="new 0 0 100 100"
   xml:space="preserve"
   id="svg519"
   sodipodi:docname="python.svg"
   width="80.000298"
   height="80.001427"
   inkscape:version="0.92.4 (5da689c313, 2019-01-14)"><metadata
     id="metadata525"><rdf:RDF><cc:Work
         rdf:about=""><dc:format>image/svg+xml</dc:format><dc:type
           rdf:resource="http://purl.org/dc/dcmitype/StillImage" /><dc:title></dc:title></cc:Work></rdf:RDF></metadata><defs
     id="defs523" /><sodipodi:namedview
     pagecolor="#ffffff"
     bordercolor="#666666"
     borderopacity="1"
     objecttolerance="10"
     gridtolerance="10"
     guidetolerance="10"
     inkscape:pageopacity="0"
     inkscape:pageshadow="2"
     inkscape:window-width="2560"
     inkscape:window-height="1361"
     id="namedview521"
     showgrid="false"
     fit-margin-top="0"
     fit-margin-left="0"
     fit-margin-right="0"
     fit-margin-bottom="0"
     inkscape:zoom="9.512"
     inkscape:cx="40.000339"
     inkscape:cy="27.501339"
     inkscape:window-x="1911"
     inkscape:window-y="-9"
     inkscape:window-maximized="1"
     inkscape:current-layer="svg519" /><path
     d="m 76.674339,23.332089 h -20.014 V 3.3270889 c -11.106,-4.604 -23.04,-4.26500001 -33.334,0 V 23.332089 H 3.3263392 c -4.603,11.107 -4.26400004,23.039 0,33.336 H 23.326339 v 20.007 c 11.107,4.603 23.041,4.264 33.334,0 v -20.007 h 20.014 c 4.602,-11.11 4.264,-23.043 0,-33.336 z m -53.348,23.336 v 3.333 H 8.0533392 c -1.863,-6.563 -1.863,-13.445 0,-20.002 H 39.993339 v -6.667 h -10 V 8.0550889 c 3.255,-0.922 6.614,-1.389 10.02,-1.389 3.391,0 6.732,0.466 9.98,1.387 V 33.333089 c 0,1.841 -1.494,3.333 -3.333,3.333 h -13.333 c -5.521,10e-4 -10.001,4.478 -10.001,10.002 z m 48.62,3.333 h -31.952 v 6.667 h 10 v 15.279 c -3.255,0.921 -6.611,1.387 -10.019,1.387 -3.389,0 -6.732,-0.466 -9.98,-1.387 v -25.279 c 0,-1.844 1.493,-3.334 3.333,-3.334 h 13.332 c 5.521,0 10,-4.476 10,-10 v -3.335 h 15.286 c 1.863,6.561 1.863,13.442 0,20.002 z"
     id="path509"
     inkscape:connector-curvature="0" /><circle
     cx="38.32634"
     cy="15.000089"
     r="3.3329999"
     id="circle511" /><circle
     cx="41.65934"
     cy="65.000092"
     r="3.3329999"
     id="circle513" /></svg>