<?xml version="1.0" encoding="UTF-8" standalone="no"?>
<svg
   xmlns:dc="http://purl.org/dc/elements/1.1/"
   xmlns:cc="http://creativecommons.org/ns#"
   xmlns:rdf="http://www.w3.org/1999/02/22-rdf-syntax-ns#"
   xmlns:svg="http://www.w3.org/2000/svg"
   xmlns="http://www.w3.org/2000/svg"
   xmlns:sodipodi="http://sodipodi.sourceforge.net/DTD/sodipodi-0.dtd"
   xmlns:inkscape="http://www.inkscape.org/namespaces/inkscape"
   data-name="Layer 1"
   viewBox="0 0 117.99962 128"
   x="0px"
   y="0px"
   version="1.1"
   id="svg34"
   sodipodi:docname="noun_strategy_1966046.svg"
   width="117.99962"
   height="128"
   inkscape:version="0.92.4 (5da689c313, 2019-01-14)">
  <metadata
     id="metadata40">
    <rdf:RDF>
      <cc:Work
         rdf:about="">
        <dc:format>image/svg+xml</dc:format>
        <dc:type
           rdf:resource="http://purl.org/dc/dcmitype/StillImage" />
      </cc:Work>
    </rdf:RDF>
  </metadata>
  <defs
     id="defs38" />
  <sodipodi:namedview
     pagecolor="#ffffff"
     bordercolor="#666666"
     borderopacity="1"
     objecttolerance="10"
     gridtolerance="10"
     guidetolerance="10"
     inkscape:pageopacity="0"
     inkscape:pageshadow="2"
     inkscape:window-width="1920"
     inkscape:window-height="1001"
     id="namedview36"
     showgrid="false"
     inkscape:zoom="1.475"
     inkscape:cx="58.999619"
     inkscape:cy="48"
     inkscape:window-x="-9"
     inkscape:window-y="-9"
     inkscape:window-maximized="1"
     inkscape:current-layer="svg34" />
  <title
     id="title2">mordern business2solid</title>
  <path
     d="m 15.529619,62 c -6.3199999,0 -11.0799999,3 -11.0799999,7 0,4 4.76,7 11.0799999,7 6.32,0 11.07,-3 11.07,-7 0,-4 -4.76,-7 -11.07,-7 z"
     id="path4"
     inkscape:connector-curvature="0" />
  <path
     d="m 91.819619,68.58 c -6.4,0 -11.23,3 -11.23,7.08 0,4.08 4.83,7.08 11.23,7.08 6.4,0 11.230001,-3 11.230001,-7.08 0,-4.08 -4.830001,-7.08 -11.230001,-7.08 z"
     id="path6"
     inkscape:connector-curvature="0" />
  <path
     d="m 106.91962,114 c -6.32,0 -11.080001,3 -11.080001,7 0,4 4.760001,7 11.080001,7 6.32,0 11.08,-3 11.08,-7 0,-4 -4.76,-7 -11.08,-7 z"
     id="path8"
     inkscape:connector-curvature="0" />
  <path
     d="m 56.909619,107.69 35.26,10.86 a 9.48,9.48 0 0 1 2,-3.58 l -35.27,-10.85 a 9.49,9.49 0 0 1 -1.99,3.57 z"
     id="path10"
     inkscape:connector-curvature="0" />
  <path
     d="m 44.149619,94.67 c -6.32,0 -11.08,3 -11.08,7 0,4 4.76,7 11.08,7 6.32,0 11.08,-3 11.08,-7 0,-4 -4.77,-7 -11.08,-7 z"
     id="path12"
     inkscape:connector-curvature="0" />
  <path
     d="m 35.449619,41.47 a 5.65,5.65 0 0 1 0.14,-0.92 l 0.9,-3.6 c -4.92,1.3 -8.63,3.38 -8.63,6.59 0,6.7 16.14,8.46 25.68,8.46 9.54,0 25.68,-1.79 25.68,-8.48 0,-3.21 -3.72,-5.29 -8.63,-6.59 l 0.9,3.6 a 3.66,3.66 0 0 1 0.11,0.91 c 2.15,0.74 3.39,1.51 3.59,2.08 -0.54,1.56 -8.55,4.48 -21.65,4.48 -13.1,0 -21.22,-3 -21.66,-4.45 0.17,-0.55 1.4,-1.33 3.57,-2.08 z"
     id="path14"
     inkscape:connector-curvature="0" />
  <path
     d="m 43.059619,33.61 a 2,2 0 0 0 -2,1.52 l -1.6,6.39 a 2,2 0 0 0 0.37,1.71 2,2 0 0 0 1.59,0.77 h 24.21 a 2,2 0 0 0 1.59,-0.77 2,2 0 0 0 0.37,-1.71 l -1.59,-6.39 a 2,2 0 0 0 -2,-1.52 h -1.1 c -1.53,-2 -2.31,-5.16 -2.31,-9.36 0,-4.83 1,-8.26 3,-10.19 a 2,2 0 0 0 0.47,-2.19 2,2 0 0 0 -1.87,-1.25 h -6.7 v -2 h 2.83 a 2,2 0 1 0 0,-4 h -2.76 V 2 a 2,2 0 0 0 -4,0 v 2.67 h -2.86 a 2,2 0 1 0 0,4 h 2.83 v 2 h -6.7 a 2,2 0 0 0 -1.83,1.2 2,2 0 0 0 0.47,2.19 c 2,1.93 3,5.36 3,10.19 0,4.2 -0.78,7.34 -2.31,9.36 z m 19.39,4 0.6,2.39 h -19.05 l 0.6,-2.39 z"
     id="path16"
     inkscape:connector-curvature="0" />
  <path
     d="M 12.089619,89 A 2,2 0 0 0 9.2996191,88.43 l -3.09,2 -3.09,-2 A 2,2 0 0 0 0.32961907,89 a 2,2 0 0 0 0.57,2.77 l 1.65000003,1.08 -1.65000003,1.06 a 2,2 0 0 0 -0.57,2.77 2,2 0 0 0 2.79000003,0.57 l 3.09,-2 3.09,2 A 2.0052431,2.0052431 0 1 0 11.519619,93.91 L 9.8696191,92.83 11.519619,91.75 a 2,2 0 0 0 0.57,-2.75 z"
     id="path18"
     inkscape:connector-curvature="0" />
  <path
     d="m 112.62962,91.48 a 2,2 0 0 0 -2.79,-0.57 l -3.09,2 -3.09,-2 a 2,2 0 0 0 -2.79,0.57 2,2 0 0 0 0.57,2.77 l 1.65,1.08 -1.65,1.08 a 2,2 0 0 0 -0.57,2.77 2,2 0 0 0 2.79,0.57 l 3.09,-2 3.09,2 a 2.0052431,2.0052431 0 1 0 2.22,-3.34 l -1.65,-1.08 1.65,-1.08 a 2,2 0 0 0 0.57,-2.77 z"
     id="path20"
     inkscape:connector-curvature="0" />
  <path
     d="m 87.709619,52 a 2,2 0 0 0 -2.79,-0.57 l -3.09,2 -3.09,-2 a 2,2 0 0 0 -2.74,0.57 2,2 0 0 0 0.57,2.77 l 1.65,1.08 -1.65,1.08 a 2,2 0 0 0 -0.57,2.75 2,2 0 0 0 2.79,0.57 l 3.09,-2 3.09,2 a 2.0052431,2.0052431 0 1 0 2.22,-3.34 l -1.65,-1.08 1.65,-1.08 a 2,2 0 0 0 0.52,-2.75 z"
     id="path22"
     inkscape:connector-curvature="0" />
  <path
     d="m 81.749619,84.12 a 12.17,12.17 0 0 1 -3.21,-2.84 l -23.69,12.48 a 11.31,11.31 0 0 1 2.91,3 z"
     id="path24"
     inkscape:connector-curvature="0" />
  <path
     d="m 76.589619,76.25 c 0,-0.19 0,-0.38 0,-0.58 a 8.83,8.83 0 0 1 0.67,-3.38 l -46.67,-3.95 c 0,0.22 0,0.43 0,0.66 a 8.78,8.78 0 0 1 -0.59,3.31 z"
     id="path26"
     inkscape:connector-curvature="0" />
  <path
     d="m 38.829619,54.74 -12.69,6.26 a 11.38,11.38 0 0 1 3,3 l 16.76,-8.3 a 68.6,68.6 0 0 1 -7.07,-0.96 z"
     id="path28"
     inkscape:connector-curvature="0" />
</svg>
