<svg xmlns="http://www.w3.org/2000/svg" xmlns:xlink="http://www.w3.org/1999/xlink" version="1.1" x="0px" y="0px" viewBox="NaN NaN NaN 625"><g><path d="M153.807,86.444 L158.317,87.023 L165.519,87.949 C178.638,89.671 194.971,102.315 205.455,118.501 C211.381,127.34 221.984,148.352 221.984,152.006 C221.984,151.914 221.996,151.999 222.036,152.168 C222.104,152.461 222.214,152.837 222.358,153.26 C222.676,154.196 223.121,155.251 223.605,156.203 C224.888,158.729 226.339,163.144 227.034,166.431 C227.544,168.84 228.326,171.384 228.587,171.796 C230.355,174.683 233.415,190.055 236.326,209.518 C239.311,230.042 239.612,274.311 236.92,296.138 C234.338,315.428 228.529,341.584 224.59,351.124 C223.857,352.818 221.944,357.457 220.373,361.353 L220.325,361.468 C219.519,363.302 218.764,365.136 218.199,366.617 C217.947,367.281 217.745,367.839 217.614,368.237 C217.561,368.4 217.524,368.521 217.507,368.584 L217.538,368.43 C215.845,374.494 211.975,379.814 208.551,385.023 C203.491,392.672 198.145,399.889 194.927,403.267 L187.148,411.587 L185.962,412.855 L159.931,412.855 L159.826,408.963 L159.386,392.632 L158.946,376.453 L158.903,374.874 L159.95,373.692 L165.821,367.066 C176.971,354.484 184.346,333.032 189.215,298.156 C190.929,285.414 190.929,223.989 189.219,211.428 C183.36,170.322 174.012,146.045 161.631,137.939 L155.76,134.087 L153.97,132.913 L153.954,130.773 L153.807,110.896 L153.807,110.867 L153.807,86.444 z M161.807,95.538 L161.807,110.851 L161.938,128.573 L166.016,131.248 C180.959,141.032 190.973,167.036 197.143,210.325 C198.953,223.624 198.953,285.77 197.141,299.242 C192.071,335.56 184.236,358.348 171.809,372.372 L166.986,377.815 L167.383,392.415 L167.718,404.855 L182.49,404.855 L189.109,397.776 C191.944,394.8 197.061,387.892 201.879,380.609 C204.176,377.137 206.201,373.882 207.638,371.348 C208.361,370.073 208.918,369.01 209.281,368.217 C209.441,367.867 209.553,367.59 209.614,367.409 C209.604,367.439 209.581,367.545 209.581,367.87 C210.109,364.53 211.636,361.397 212.973,358.314 C214.37,354.871 215.761,351.425 217.222,348.009 C220.815,339.305 226.492,313.74 228.985,295.118 C231.586,274.029 231.29,230.476 228.412,210.685 C227.063,201.67 225.607,193.164 224.298,186.588 C223.122,180.676 222.041,176.426 221.799,176.029 C220.888,174.595 219.914,171.425 219.208,168.088 C218.647,165.438 217.409,161.67 216.473,159.827 C215.05,157.027 213.984,153.893 213.984,152.006 C213.984,150.596 203.767,130.35 198.775,122.903 C189.419,108.458 174.947,97.255 164.489,95.882 L161.807,95.538 z M217.581,367.87 L217.543,368.403 C217.59,368.166 217.56,368.342 217.581,367.87 z" fill="#000000"/><path d="M334.069,87.682 C336.801,87.562 338.763,88.652 340.291,90.855 C341.282,92.588 341.666,100.898 341.846,114.69 L341.992,135.028 L342.005,136.729 L340.788,137.918 L336.506,142.103 C331.928,146.497 324.252,159.369 323.097,164.488 C322.426,167.303 321.42,170.155 320.527,171.561 L320.459,171.669 C320.397,171.801 320.435,171.719 320.35,171.919 C320.213,172.256 320.055,172.712 319.896,173.235 C319.54,174.41 319.231,175.755 319.052,176.945 L319.018,177.137 C318.342,180.505 317.251,184.492 316.434,186.376 C311.16,198.906 307.845,256.474 310.857,286.886 C312.72,305.394 317.938,332.367 320.822,338.855 C321.092,339.48 323.946,346.334 324.939,348.674 C325.047,348.929 325.153,349.179 325.258,349.425 C325.449,349.874 325.635,350.308 325.82,350.739 C327.76,355.285 331.22,360.638 334.951,364.971 C336.714,367.019 338.43,368.708 339.89,369.842 C340.558,370.361 341.141,370.739 341.599,370.964 C341.874,371.089 341.745,371.038 341.982,371.122 C345.874,371.175 347.582,373.135 348.507,376.707 C348.958,379.054 349.038,382.074 349.038,392.061 L349.038,413.009 L316.044,413.009 L314.899,411.968 L308.272,405.938 C304.484,402.439 298.859,395.509 295.266,390.021 C293.858,387.768 292.384,385.492 291.115,383.598 C290.556,382.764 290.066,382.047 289.692,381.517 C289.519,381.272 289.376,381.074 289.273,380.936 C289.236,380.887 289.214,380.859 289.303,380.952 C288.211,379.806 285.972,375.351 282.934,368.754 C279.625,361.569 277.925,357.5 277.925,355.852 C277.925,355.979 277.932,356.048 277.938,356.086 C277.932,356.047 277.917,355.976 277.892,355.881 C277.826,355.621 277.718,355.274 277.574,354.875 C277.253,353.982 276.801,352.941 276.304,351.963 C275.021,349.437 273.571,345.022 272.875,341.735 C272.598,340.426 272.258,339.077 271.932,338 C271.774,337.476 271.625,337.038 271.5,336.723 C271.43,336.552 271.458,336.615 271.421,336.534 L271.392,336.495 L271.261,336.266 C269.07,332.432 265.405,312.049 261.669,283.967 C258.655,261.502 261.363,215.564 267.302,188.597 C275.57,151.692 290.213,111.275 324.753,91.344 C327.342,89.881 330.009,88.503 332.923,87.834 L334.069,87.682 z M333.217,96.078 C331.626,96.676 330.135,97.511 328.649,98.33 L328.622,98.346 C303.585,112.148 285.34,143.301 275.117,190.307 C269.368,216.411 266.715,261.416 269.599,282.908 C273.085,309.11 276.815,329.863 278.206,332.296 L278.203,332.298 C279.574,334.672 280.088,337.439 280.702,340.078 C281.263,342.728 282.5,346.496 283.437,348.339 C284.418,350.546 285.722,352.823 285.887,355.289 C285.985,355.596 285.925,355.414 286.072,355.832 C286.289,356.428 286.616,357.252 287.036,358.256 C287.853,360.212 288.982,362.762 290.2,365.408 C291.414,368.043 292.631,370.589 293.611,372.538 C294.113,373.538 294.542,374.358 294.873,374.952 C295.029,375.231 295.156,375.45 295.248,375.595 C295.258,375.61 295.242,375.589 295.096,375.435 C295.889,376.268 299.08,381.03 302.004,385.709 C305.217,390.615 310.44,397.049 313.678,400.042 L319.138,405.009 L341.038,405.009 L341.038,392.061 C341.011,388.333 341.079,384.6 340.908,380.875 C340.879,380.245 340.811,379.617 340.763,378.989 C331.561,377.245 322.016,361.654 318.467,353.889 C318.282,353.461 318.093,353.019 317.898,352.562 C317.792,352.312 317.684,352.057 317.574,351.798 C316.561,349.411 313.724,342.596 313.496,342.069 C310.185,334.621 304.84,306.993 302.896,287.681 C299.763,256.045 303.145,197.328 309.077,183.235 C309.638,181.94 310.6,178.426 311.174,175.564 L311.177,175.564 C311.729,172.753 312.208,169.735 313.785,167.279 L313.774,167.272 C314.08,166.791 314.833,164.656 315.304,162.681 C316.809,156.009 325.301,141.769 330.94,136.357 L333.98,133.385 L333.846,114.771 C333.774,109.28 333.631,104.024 333.446,100.035 C333.382,98.715 333.321,97.395 333.217,96.078 z M341.809,371.112 L341.979,371.122 C341.893,371.111 341.95,371.117 341.809,371.112 z M285.891,355.345 L285.925,355.852 C285.908,355.405 285.936,355.572 285.891,355.345 z" fill="#000000"/><path d="M324.76,91.34 L324.753,91.343 L324.733,91.355 L324.76,91.34 z" fill="#000000"/><path d="M89.107,157.318 L89.329,157.348 C89.651,157.371 89.524,157.339 89.719,157.402 L89.744,157.405 L89.743,157.409 C90.916,157.784 90.431,157.553 91.236,158.014 C91.488,158.173 91.718,158.348 91.959,158.551 C92.292,158.832 92.667,159.187 93.104,159.631 C93.876,160.413 94.877,161.506 96.06,162.855 C98.45,165.58 101.469,169.22 104.524,173.068 C110.611,180.736 119.016,190.878 123.102,195.497 C130.78,204.259 144.939,220.821 158.409,236.826 C164.039,243.682 166.487,247.02 166.487,249.182 C166.487,252.164 164.77,254.297 146.522,275.332 C136.746,286.846 132.01,292.446 129.514,295.479 C129.016,296.056 128.488,296.673 127.929,297.327 C127.822,297.452 127.822,297.452 127.716,297.577 C126.654,298.822 125.55,300.124 124.278,301.632 C123.961,302.007 122.206,304.089 121.9,304.451 L121.83,304.531 C117.081,309.849 97.071,333.31 94.13,337.014 L91.013,341.105 L83.926,350.404 L83.831,338.712 L83.675,319.373 C83.675,309.66 82.908,299.595 82.385,298.587 L82.354,298.526 C81.285,298.17 80.109,298.125 78.994,298.022 C74.561,297.684 67.561,297.661 46.702,297.849 L8.984,298.013 L4.967,298.03 L4.967,199.516 L8.984,199.533 L46.55,199.697 C61.967,199.78 71.379,199.69 77.186,199.395 C79.081,199.297 80.979,199.175 82.854,198.875 L82.857,198.856 C83.009,197.74 83.152,196.188 83.275,194.315 C83.529,190.413 83.675,185.402 83.675,180.299 C83.675,174.977 83.794,170.116 84.014,166.574 C84.13,164.697 84.274,163.2 84.449,162.109 C84.563,161.401 84.694,160.822 84.883,160.3 C85.065,159.795 85.294,159.339 85.671,158.874 C86.602,157.756 87.532,157.449 88.922,157.333 L88.922,157.32 L89.01,157.326 L89.107,157.318 z M91.851,170.231 C91.694,173.584 91.694,176.943 91.675,180.299 C91.631,185.999 91.63,191.718 91.052,197.395 C90.85,199.382 90.718,201.901 89.73,203.709 L89.745,203.718 L89.636,203.88 L89.58,203.983 L89.57,203.977 C87.371,207.055 82.74,207.061 79.352,207.329 C76.203,207.577 73.029,207.625 69.872,207.675 C62.086,207.798 54.297,207.736 46.511,207.697 L12.967,207.55 L12.967,289.996 L46.648,289.849 C67.829,289.658 74.829,289.682 79.601,290.045 C85.416,290.488 87.863,291.665 89.51,294.95 C90.891,297.607 91.675,307.898 91.675,319.341 L91.74,327.367 C99.748,317.979 107.627,308.476 115.822,299.249 C116.603,298.324 117.383,297.398 118.164,296.472 C119.445,294.955 120.557,293.643 121.629,292.386 C121.737,292.259 121.737,292.259 121.845,292.132 C122.411,291.469 122.948,290.843 123.395,290.326 C125.872,287.315 130.603,281.721 140.451,270.121 C148.706,260.606 153.202,255.332 155.826,252.073 C157.132,250.43 156.419,251.346 157.95,249.314 C157.432,248.569 157.702,248.95 157.138,248.173 C155.87,246.445 154.118,244.206 152.257,241.941 C138.85,226.01 124.724,209.486 117.098,200.784 C112.918,196.059 104.427,185.813 98.258,178.042 C96.166,175.402 94.031,172.797 91.851,170.231 z" fill="#000000"/><path d="M410.893,157.242 L410.99,157.25 L411.078,157.244 L411.078,157.257 C412.429,157.172 413.418,157.913 414.329,158.798 C414.706,159.263 414.935,159.719 415.117,160.224 C415.306,160.746 415.437,161.325 415.551,162.032 C415.726,163.124 415.87,164.621 415.986,166.498 C416.206,170.04 416.325,174.901 416.325,180.223 C416.325,185.326 416.471,190.337 416.725,194.239 C416.848,196.112 416.991,197.664 417.143,198.78 L417.146,198.799 C419.016,199.128 420.922,199.206 422.814,199.319 C428.621,199.614 438.033,199.704 453.454,199.621 L491.016,199.457 L495.033,199.439 L495.033,297.954 L491.016,297.937 L453.279,297.773 C432.439,297.585 425.439,297.608 421.006,297.946 C419.887,298.067 418.722,298.086 417.646,298.45 L417.589,298.562 C417.092,299.519 416.325,309.584 416.325,319.33 L416.169,338.637 L416.074,350.328 L408.987,341.029 L405.919,337.001 C402.929,333.234 382.919,309.773 378.17,304.455 L378.1,304.375 C377.794,304.013 376.039,301.931 375.722,301.556 C374.45,300.048 373.346,298.746 372.284,297.501 C372.178,297.376 372.178,297.376 372.071,297.251 C371.512,296.597 370.984,295.98 370.427,295.333 C367.99,292.37 363.254,286.77 353.506,275.288 C335.23,254.221 333.513,252.089 333.513,249.106 C333.513,246.944 335.961,243.606 341.622,236.713 C355.061,220.745 369.22,204.183 376.91,195.407 C380.984,190.802 389.389,180.66 395.476,172.992 C398.531,169.144 401.55,165.504 403.94,162.779 C405.123,161.43 406.124,160.337 406.896,159.555 C407.333,159.111 407.708,158.756 408.041,158.475 C408.282,158.272 408.512,158.097 408.764,157.938 C409.569,157.477 409.084,157.708 410.257,157.333 L410.256,157.329 L410.28,157.326 C410.477,157.263 410.349,157.295 410.672,157.272 L410.893,157.242 z M408.149,170.155 C405.951,172.706 403.849,175.339 401.742,177.965 C395.573,185.737 387.082,195.983 382.915,200.694 C375.276,209.41 361.15,225.934 347.773,241.827 C345.882,244.13 344.13,246.369 342.862,248.097 C342.298,248.874 342.568,248.493 342.05,249.237 C343.581,251.27 342.868,250.354 344.174,251.997 C346.798,255.256 351.294,260.53 359.577,270.078 C369.397,281.645 374.128,287.239 376.546,290.18 C377.052,290.767 377.589,291.393 378.155,292.056 C378.263,292.183 378.263,292.183 378.371,292.31 C379.443,293.567 380.555,294.879 381.836,296.396 C382.616,297.321 383.395,298.247 384.176,299.171 C392.296,308.465 400.333,317.834 408.26,327.293 L408.325,319.297 C408.325,307.822 409.109,297.531 410.463,294.926 C412.137,291.589 414.584,290.412 420.398,289.969 C425.171,289.606 432.171,289.582 453.333,289.773 L487.033,289.919 L487.033,207.474 L453.493,207.62 C442.561,207.421 431.565,208.114 420.648,207.253 C417.348,206.992 412.523,207.006 410.43,203.901 L410.42,203.907 L410.364,203.804 L410.255,203.642 L410.27,203.633 C409.034,200.726 408.901,197.346 408.695,194.235 C408.386,189.57 408.355,184.896 408.325,180.223 C408.322,176.867 408.284,173.509 408.149,170.155 z" fill="#000000"/></g><text x="NaN" y="NaN" fill="#000000" font-size="5px" font-weight="bold" font-family="'Helvetica Neue', Helvetica, Arial-Unicode, Arial, Sans-serif">Created by Anna Sophie</text><text x="NaN" y="NaN" fill="#000000" font-size="5px" font-weight="bold" font-family="'Helvetica Neue', Helvetica, Arial-Unicode, Arial, Sans-serif">from the Noun Project</text></svg>