<?xml version="1.0" encoding="UTF-8" standalone="no"?>
<svg
   xmlns:dc="http://purl.org/dc/elements/1.1/"
   xmlns:cc="http://creativecommons.org/ns#"
   xmlns:rdf="http://www.w3.org/1999/02/22-rdf-syntax-ns#"
   xmlns:svg="http://www.w3.org/2000/svg"
   xmlns="http://www.w3.org/2000/svg"
   xmlns:sodipodi="http://sodipodi.sourceforge.net/DTD/sodipodi-0.dtd"
   xmlns:inkscape="http://www.inkscape.org/namespaces/inkscape"
   version="1.1"
   x="0px"
   y="0px"
   viewBox="0 0 67.056381 99.99987"
   enable-background="new 0 0 100 100"
   xml:space="preserve"
   id="svg3797"
   sodipodi:docname="constraint.svg"
   width="67.056381"
   height="99.99987"
   inkscape:version="0.92.4 (5da689c313, 2019-01-14)"><metadata
     id="metadata3803"><rdf:RDF><cc:Work
         rdf:about=""><dc:format>image/svg+xml</dc:format><dc:type
           rdf:resource="http://purl.org/dc/dcmitype/StillImage" /><dc:title></dc:title></cc:Work></rdf:RDF></metadata><defs
     id="defs3801" /><sodipodi:namedview
     pagecolor="#ffffff"
     bordercolor="#666666"
     borderopacity="1"
     objecttolerance="10"
     gridtolerance="10"
     guidetolerance="10"
     inkscape:pageopacity="0"
     inkscape:pageshadow="2"
     inkscape:window-width="2560"
     inkscape:window-height="1361"
     id="namedview3799"
     showgrid="false"
     fit-margin-top="0"
     fit-margin-left="0"
     fit-margin-right="0"
     fit-margin-bottom="0"
     inkscape:zoom="10.680141"
     inkscape:cx="0.83416509"
     inkscape:cy="48.122694"
     inkscape:window-x="1911"
     inkscape:window-y="-9"
     inkscape:window-maximized="1"
     inkscape:current-layer="svg3797" /><g
     transform="matrix(0.1,0,0,-0.1,-15.838943,1226.9998)"
     id="g3791"><path
       d="m 600.3,12268.9 c -10.6,-2.3 -17.6,-6.4 -27.3,-15.7 -4.7,-4.5 -58.4,-56 -119.4,-114.3 -67.9,-65 -113.1,-108.9 -116.6,-113.2 -36,-44.8 -47.5,-103.2 -31.2,-158.3 1.4,-4.7 2.6,-8.7 2.6,-8.9 0,-0.4 -54.4,-52.6 -56.9,-54.6 l -2,-1.6 -5.6,5.5 c -3.2,3.1 -6.6,6 -7.6,6.6 -3,1.5 -10.6,1.1 -13.5,-0.7 -4.3,-2.6 -35.6,-33.1 -37.2,-36 -2.3,-4.3 -2,-10.8 0.7,-14.7 1.7,-2.6 45.8,-49.2 83.9,-88.6 l 4.9,-5.1 -1.7,-6.4 c -3.8,-14.5 -9.5,-54.4 -10.7,-74.9 -0.6,-10.7 0.3,-14.1 4.8,-19.1 9.2,-10.2 25.4,-8.2 31.9,3.9 1.5,3.1 1.8,4.9 1.7,11.7 -0.2,11.8 -4.5,47.9 -7.6,63.5 -0.5,2.5 -0.4,2.5 4,-1.9 2.6,-2.5 5.7,-4.9 7,-5.3 3.4,-1.4 8.9,-1.1 11.9,0.3 4,1.9 35.6,32.3 37.9,36.4 3.6,6.6 2.1,13 -4.6,20.3 -2.3,2.5 -3.7,4.6 -3.2,5 1.4,1.2 42.5,40.5 49.8,47.6 l 7.3,7.1 10.2,-3.4 c 42.3,-14.5 89.3,-11.8 128.8,7.2 15.4,7.4 28.3,15.8 39.4,25.6 2.6,2.2 56.7,54 120.5,115 84.5,81 116.6,112.2 118.6,115.5 9.5,15.8 10.6,41.3 2.1,55.2 -2.6,4.3 -178.8,188 -183.1,191 -6.4,4.3 -12.4,6 -23.7,6.3 -7.1,0.3 -11.9,-0.1 -16.1,-1 z m 26.5,-18.6 c 2.8,-1.1 22.1,-20.9 92,-93.9 61.2,-63.9 89,-93.5 90.1,-95.9 3.7,-8.2 2.4,-23.7 -2.6,-32.5 -1.6,-2.9 -35.4,-35.8 -118.9,-115.7 -64.2,-61.4 -119.8,-114.1 -123.6,-117.1 -43.6,-34.1 -101.7,-42 -152.7,-20.8 -4.6,1.9 -9,3.7 -9.8,3.9 -1,0.3 -10.9,-8.6 -34.4,-31.2 -18.1,-17.4 -33.2,-31.6 -33.6,-31.6 -0.3,0 -11.8,11.8 -25.6,26.2 -13.8,14.4 -29.6,30.8 -35.1,36.6 l -10.1,10.4 30.9,29.6 c 17,16.4 32.2,30.9 33.8,32.5 l 2.9,2.7 -3.1,8.4 c -15.3,41 -13.5,83.3 4.9,121.8 5.4,11.2 10.4,19.3 18.2,29.1 7.2,9 238.9,231.4 244.5,234.6 2.1,1.3 6,2.9 8.6,3.6 6.1,1.7 18.8,1.4 23.6,-0.7 z m -392.3,-458.6 c 6.4,-7.1 78,-82 90.6,-94.7 l 12,-12.2 -13.2,-12.7 c -7.2,-7 -13.5,-12.6 -13.8,-12.5 -0.3,0.2 -24.5,25.1 -53.7,55.6 l -53,55.3 13,12.6 c 7.2,6.9 13.4,12.6 13.7,12.6 0.3,0 2.3,-1.8 4.4,-4 z"
       id="path3783"
       inkscape:connector-curvature="0" /><path
       d="m 333.2,11904.6 c 0.1,-9.9 5.5,-33.8 10.6,-46.3 l 3.1,-7.6 -3.2,-3.3 c -1.8,-1.8 -16.5,-16 -32.9,-31.5 l -29.6,-28.3 26.2,-26.2 26.2,-26.2 2.2,2 c 16.4,15 50.1,45.2 64.4,57.9 1.9,1.5 2,1.5 9.7,-3.2 35.2,-21.2 78.1,-20.8 123.1,1.2 22.5,11 26,13.8 70.2,56.1 21.8,20.9 44.1,42.3 49.5,47.5 l 9.8,9.5 -164.6,0.1 H 333.2 Z"
       id="path3785"
       inkscape:connector-curvature="0" /><path
       d="m 163.1,11486 c -1.6,-0.7 -3.3,-2.4 -4.2,-4 -1.3,-2.7 -0.8,-7.8 9.8,-102.5 6.1,-54.9 11.6,-101.1 12.1,-102.9 0.6,-2.2 1.8,-3.7 3.6,-4.9 2.6,-1.6 4.8,-1.7 62.8,-1.7 64.1,0 62.6,-0.1 65.7,4.3 2,2.9 24.6,203.1 23.3,206.7 -0.5,1.3 -2,3.1 -3.2,4.1 -2.4,1.8 -2.6,1.8 -84.8,2 -69.5,0.1 -82.8,-0.1 -85.1,-1.1 z m 154.2,-17.2 c 0.3,-0.4 -4.2,-40.9 -9.7,-90.1 -5.5,-49.2 -10.1,-89.7 -10.1,-90.1 0,-0.4 -22.4,-0.7 -49.8,-0.7 -39.1,0 -50,0.3 -50.3,1.1 -0.5,1.4 -20,174.7 -20,177.9 v 2.5 h 69.8 c 38.3,0 69.9,-0.3 70.1,-0.6 z"
       id="path3787"
       inkscape:connector-curvature="0" /><path
       d="m 200.3,11425.3 c 0,-2 9.2,-108.4 9.8,-114.2 l 0.5,-4.5 h 35.3 35.3 l 0.5,3.7 c 0.5,3.7 13.2,115.2 13.2,116 0,0.3 -21.3,0.4 -47.3,0.4 -44.5,0.1 -47.3,0 -47.3,-1.4 z"
       id="path3789"
       inkscape:connector-curvature="0" /></g></svg>