<?xml version="1.0" encoding="UTF-8" standalone="no"?>
<svg
   xmlns:dc="http://purl.org/dc/elements/1.1/"
   xmlns:cc="http://creativecommons.org/ns#"
   xmlns:rdf="http://www.w3.org/1999/02/22-rdf-syntax-ns#"
   xmlns:svg="http://www.w3.org/2000/svg"
   xmlns="http://www.w3.org/2000/svg"
   xmlns:sodipodi="http://sodipodi.sourceforge.net/DTD/sodipodi-0.dtd"
   xmlns:inkscape="http://www.inkscape.org/namespaces/inkscape"
   version="1.1"
   x="0px"
   y="0px"
   viewBox="0 0 73.099998 43.900002"
   xml:space="preserve"
   id="svg114"
   sodipodi:docname="flow.svg"
   width="73.099998"
   height="43.900002"
   inkscape:version="0.92.4 (5da689c313, 2019-01-14)"><metadata
     id="metadata120"><rdf:RDF><cc:Work
         rdf:about=""><dc:format>image/svg+xml</dc:format><dc:type
           rdf:resource="http://purl.org/dc/dcmitype/StillImage" /><dc:title></dc:title></cc:Work></rdf:RDF></metadata><defs
     id="defs118" /><sodipodi:namedview
     pagecolor="#ffffff"
     bordercolor="#666666"
     borderopacity="1"
     objecttolerance="10"
     gridtolerance="10"
     guidetolerance="10"
     inkscape:pageopacity="0"
     inkscape:pageshadow="2"
     inkscape:window-width="2560"
     inkscape:window-height="1361"
     id="namedview116"
     showgrid="false"
     fit-margin-top="0"
     fit-margin-left="0"
     fit-margin-right="0"
     fit-margin-bottom="0"
     inkscape:zoom="9.512"
     inkscape:cx="36.6"
     inkscape:cy="9.6"
     inkscape:window-x="1911"
     inkscape:window-y="-9"
     inkscape:window-maximized="1"
     inkscape:current-layer="svg114" /><g
     id="g127"
     transform="translate(-13.4,-28.2)"><path
       id="path100"
       d="m 64.5,72.1 c -7.3,0 -17.7,-2.4 -22.8,-4.1 -3.3,-1 -7,-1.5 -10.7,-1.5 -6.4,0 -12.3,1.4 -16.6,4 l -1,-1.7 c 4.7,-2.7 10.9,-4.3 17.6,-4.3 4,0 7.8,0.5 11.3,1.6 5.1,1.6 15.1,4 22.2,4 7.8,0 15.4,-1.3 21.3,-3.6 l 0.7,1.9 c -6.1,2.4 -14,3.7 -22,3.7 z"
       inkscape:connector-curvature="0" /><path
       id="path102"
       d="m 64.5,67.1 c -7.3,0 -17.7,-2.4 -22.8,-4.1 -3.3,-1 -7,-1.5 -10.7,-1.5 -6.4,0 -12.3,1.4 -16.6,4 l -1,-1.7 c 4.7,-2.7 10.9,-4.3 17.6,-4.3 4,0 7.8,0.5 11.3,1.6 5.1,1.6 15.1,4 22.2,4 7.8,0 15.4,-1.3 21.3,-3.6 l 0.7,1.9 c -6.1,2.4 -14,3.7 -22,3.7 z"
       inkscape:connector-curvature="0" /><path
       id="path104"
       d="m 64.5,62.1 c -7.3,0 -17.7,-2.4 -22.8,-4.1 -3.3,-1 -7,-1.5 -10.7,-1.5 -6.4,0 -12.3,1.4 -16.6,4 l -1,-1.7 c 4.7,-2.7 10.9,-4.3 17.6,-4.3 4,0 7.8,0.5 11.3,1.6 5.1,1.6 15.1,4 22.2,4 7.8,0 15.4,-1.3 21.3,-3.6 l 0.7,1.9 c -6.1,2.4 -14,3.7 -22,3.7 z"
       inkscape:connector-curvature="0" /><polygon
       id="polygon106"
       points="55.6,33.4 51.8,29.6 53.2,28.2 58.5,33.4 53.1,38.7 51.7,37.3 " /><rect
       id="rect108"
       height="2"
       width="14"
       y="32.5"
       x="42.5" /></g></svg>