<?xml version="1.0" encoding="UTF-8" standalone="no"?>
<svg
   xmlns:dc="http://purl.org/dc/elements/1.1/"
   xmlns:cc="http://creativecommons.org/ns#"
   xmlns:rdf="http://www.w3.org/1999/02/22-rdf-syntax-ns#"
   xmlns:svg="http://www.w3.org/2000/svg"
   xmlns="http://www.w3.org/2000/svg"
   xmlns:sodipodi="http://sodipodi.sourceforge.net/DTD/sodipodi-0.dtd"
   xmlns:inkscape="http://www.inkscape.org/namespaces/inkscape"
   version="1.1"
   x="0px"
   y="0px"
   viewBox="0 0 84.320747 87.426735"
   enable-background="new 0 0 100 100"
   xml:space="preserve"
   id="svg351"
   sodipodi:docname="lean_232085.svg"
   width="84.320747"
   height="87.426735"
   inkscape:version="0.92.4 (5da689c313, 2019-01-14)"><metadata
     id="metadata357"><rdf:RDF><cc:Work
         rdf:about=""><dc:format>image/svg+xml</dc:format><dc:type
           rdf:resource="http://purl.org/dc/dcmitype/StillImage" /><dc:title></dc:title></cc:Work></rdf:RDF></metadata><defs
     id="defs355" /><sodipodi:namedview
     pagecolor="#ffffff"
     bordercolor="#666666"
     borderopacity="1"
     objecttolerance="10"
     gridtolerance="10"
     guidetolerance="10"
     inkscape:pageopacity="0"
     inkscape:pageshadow="2"
     inkscape:window-width="2560"
     inkscape:window-height="1361"
     id="namedview353"
     showgrid="false"
     fit-margin-top="0"
     fit-margin-left="0"
     fit-margin-right="0"
     fit-margin-bottom="0"
     inkscape:zoom="9.512"
     inkscape:cx="42.164"
     inkscape:cy="33.913494"
     inkscape:window-x="1911"
     inkscape:window-y="-9"
     inkscape:window-maximized="1"
     inkscape:current-layer="svg351" /><g
     id="g362"
     transform="translate(-7.836,-8.9867586)"><path
       id="path341"
       d="m 26.861,93.316 c -0.529,-0.162 -1.996,-0.365 -2.771,-0.528 -0.773,-0.163 -1.996,-0.529 -2.199,-0.772 -0.204,-0.246 -0.938,-0.611 -1.629,-1.793 -0.326,-0.558 -0.733,-1.02 -1.142,-0.529 -0.396,0.477 -0.061,1.149 0.346,1.64 0.407,0.487 1.009,0.917 1.009,0.917 0,0 -0.785,0.05 -2.944,-0.273 -2.159,-0.326 -3.463,-0.857 -4.359,-1.836 -0.896,-0.977 -1.915,-1.426 -1.915,-1.426 0,0 -0.255,-0.094 -0.652,0.124 -0.148,-0.08 -0.244,-0.124 -0.244,-0.124 0,0 -0.285,-0.122 -0.733,0.163 -0.695,0.442 -1.059,1.916 -1.14,2.935 -0.082,1.018 0.448,1.426 0.448,1.426 0,0 -0.408,-0.163 -0.57,0.041 -0.163,0.203 -0.489,2.158 -0.53,2.525 0,0 0.979,0.407 1.956,0.53 0.316,0.039 0.887,0.044 1.481,0.034 1.13,0.025 3,-0.076 3,-0.076 l 0.245,-1.588 c 0,0 0.447,0 2.077,0.406 1.631,0.408 2.037,0.814 4.849,1.182 2.812,0.366 5.705,-0.203 6.56,-0.447 -0.042,-0.656 -0.613,-2.367 -1.143,-2.531 z"
       inkscape:connector-curvature="0" /><path
       id="path343"
       d="M 91.968,16.598 C 91.644,15.661 89.608,13.135 88.384,12.443 87.161,11.75 84.188,9.387 83.698,9.59 c -0.489,0.204 -2.444,1.671 -2.567,1.711 0,0 -1.019,-1.141 -1.548,-1.792 -0.529,-0.652 -0.732,-0.57 -0.978,-0.408 -0.245,0.163 -1.102,0.652 -0.774,2.16 0.325,1.507 0.774,1.752 1.344,2.2 0.298,0.233 0.692,0.62 1.005,0.938 -0.183,-0.094 -0.485,-0.052 -0.673,-0.089 -0.021,-0.319 -0.253,-0.695 -0.616,-0.648 -0.265,0.034 -0.657,0.533 -0.739,-0.067 -0.347,0.384 0.334,0.279 0.212,0.561 -0.13,0.3 -0.393,-0.101 -0.501,-0.164 -0.642,-0.376 -0.741,0.221 -0.691,0.762 -0.125,-0.218 -0.414,-0.19 -0.603,-0.073 -0.088,0.054 -0.436,0.356 -0.48,0.421 -0.271,0.388 0.317,0.679 -0.049,1.043 -0.273,-0.287 -0.804,-0.122 -0.732,0.333 0.05,0.331 0.444,0.496 0.688,0.659 -0.073,0.04 -0.134,0.131 -0.23,0.161 -0.038,0.206 0.041,0.395 0.023,0.6 -0.132,-0.103 -0.242,-0.09 -0.316,0.05 -0.117,-0.145 0.176,-0.343 0.096,-0.469 -0.153,-0.246 -0.207,0.006 -0.414,-0.096 -0.304,-0.149 -0.06,-0.833 -0.533,-0.677 -0.004,0.084 -0.07,0.147 -0.08,0.226 -0.291,-0.002 -0.183,-0.359 -0.342,-0.54 -0.196,-0.223 -0.455,-0.247 -0.733,-0.249 0.249,0 0.741,0.52 0.419,0.704 -0.187,-0.224 -0.519,-0.519 -0.674,-0.036 -0.308,0.003 -0.396,-0.46 -0.645,-0.116 -0.152,0.21 0.019,0.574 0.053,0.777 -0.191,-0.127 -0.489,-0.334 -0.663,-0.102 -0.278,0.37 0.229,0.37 0.324,0.524 0.159,0.255 -0.108,0.656 -0.379,0.648 -0.447,-0.012 -0.349,-0.546 0.031,-0.563 -0.185,-0.129 -0.43,0.034 -0.557,0.201 -0.059,0.079 -0.145,0.237 -0.145,0.336 -10e-4,0.235 0.039,0.107 0.141,0.259 0.131,0.199 0.372,0.381 0.33,0.661 -0.042,0.276 -0.421,0.505 -0.683,0.54 l 0.209,0.03 c 0.267,-0.025 0.342,0.272 0.601,0.256 0.222,-0.014 0.196,-0.115 0.179,-0.151 0.007,0.009 0.018,0.023 0.036,0.046 -0.204,0.354 0.159,0.608 0.451,0.669 0.184,0.039 0.485,0.121 0.642,-0.029 0.16,-0.154 0.165,-0.568 0.318,-0.667 0.305,-0.194 0.361,0.591 0.504,0.521 0.387,-0.193 0.053,-0.615 0.157,-0.941 0.153,0.008 0.328,0.247 0.38,0.38 0.188,-0.095 0.383,-0.486 0.627,-0.446 -0.068,0.174 -0.189,0.51 0.024,0.603 0.23,0.099 0.462,-0.35 0.808,-0.344 -0.029,0.125 -0.077,0.35 -0.028,0.485 0.056,0.16 0.324,0.069 0.271,0.357 -0.271,0.054 -0.325,0.383 -0.565,0.45 0.001,-0.085 -0.477,-0.765 -0.699,-0.79 -0.146,-0.016 -0.522,0.469 -0.673,0.582 -0.123,0.092 -1.313,1.039 -1.313,1.039 0,0 0,0 -0.825,0.061 -0.824,0.062 -2.169,0.336 -3.209,0.917 -1.613,0.903 -3.91,3.33 -5.01,4.4 -1.102,1.069 -1.253,1.741 -1.803,2.994 -0.552,1.253 -0.307,1.651 -0.856,2.079 -0.55,0.428 -1.59,1.283 -2.413,2.292 -0.825,1.008 -0.795,1.803 -0.888,2.077 -0.092,0.275 -0.366,0.184 -0.947,0.52 -0.579,0.335 -1.619,1.924 -2.749,3.637 -1.132,1.711 -2.476,4.216 -2.934,4.889 -0.825,0.367 -2.608,1.466 -4.4,3.544 -0.864,1.001 -3.27,4.034 -3.667,4.4 -0.396,0.366 -1.375,0.948 -1.131,1.467 0.245,0.519 0.642,0.855 0.642,0.855 -0.366,0.306 -4.949,4.827 -5.622,5.502 -0.672,0.671 -2.048,2.748 -3.178,3.481 -1.131,0.732 -1.864,1.313 -2.261,1.68 -0.397,0.369 -0.367,0.703 -0.521,0.765 -0.151,0.063 -0.488,0.123 -0.978,0.429 -0.489,0.307 0,0.338 -0.947,0.644 -0.948,0.305 -6.601,5.864 -8.251,7.303 -1.649,1.437 -6.11,5.254 -6.813,5.929 -0.703,0.672 -0.947,0.916 -0.855,1.068 0.091,0.152 0.245,0.275 0.245,0.275 l -0.428,0.396 c 1.223,0.459 2.139,1.13 4.095,2.963 1.956,1.834 4.981,4.035 4.981,4.035 0,0 5.47,-4.92 7.944,-7.121 2.476,-2.199 5.897,-5.805 6.05,-5.988 0.153,-0.185 1.069,-0.459 1.896,-0.582 0.825,-0.121 1.192,-1.313 1.65,-1.863 0.458,-0.55 0.396,-0.487 4.399,-3.33 4.003,-2.842 7.732,-6.508 7.732,-6.508 0,0 0.305,0.427 1.496,1.13 1.19,0.702 2.2,0.612 2.2,0.612 1.464,0.998 2.755,1.461 3.87,1.24 0.938,-0.182 1.82,-0.626 2.669,-1.576 2.221,-2.496 5.807,-6.897 9.27,-11.787 2.145,-3.025 3.28,-6.305 4.034,-8.678 0.813,-2.566 1.467,-4.727 2.402,-8.719 0.938,-3.993 1.182,-7.252 0.813,-8.067 -0.365,-0.815 -0.731,-2.444 -0.731,-2.444 0,0 0.271,0.467 0.651,0.855 0.314,0.323 0.719,0.541 0.978,0.855 0.57,0.692 1.151,0.38 1.468,0.123 0.446,-0.367 0.57,-0.49 0.773,-0.286 0.203,0.204 0.57,0.245 0.692,-0.286 0.123,-0.529 0.481,-1.235 0.825,-1.416 0.52,-0.274 0.67,-0.175 1.1,-0.153 0.581,0.031 0.979,0.123 1.05,-0.183 0.029,-0.127 0.069,-0.314 0.173,-0.52 0.101,-0.2 0.274,-0.417 0.274,-0.417 0,0 0.489,0.082 0.733,-0.041 0.388,1.031 0.979,1.63 1.265,1.589 0.284,0.082 0.222,-0.448 0.202,-0.896 -0.03,-0.723 0.03,-1.09 0,-2.189 -0.018,-0.616 -0.121,-1.315 -0.121,-1.315 0,0 -2.771,-3.096 -2.813,-3.259 -0.042,-0.163 -0.244,-0.529 -0.529,-1.467 -0.653,-2.147 -2.935,-5.623 -2.935,-5.623 0,0 0.938,1.019 1.915,2.038 0.979,1.018 5.866,6.518 5.866,6.518 0,0 1.509,-1.752 2.119,-2.566 0.608,-0.813 0.689,-0.773 0.363,-1.71 z M 70.089,38.396 c -0.163,0.326 -2.851,3.3 -2.851,3.3 0,0 -0.367,-1.06 -1.264,-1.63 -0.896,-0.571 -2.363,-1.792 -3.179,-2.364 -0.814,-0.57 -1.141,-0.407 -1.671,-1.099 0,0 0.897,-0.937 1.183,-1.386 0.284,-0.448 0.896,-1.629 1.264,-1.875 0.366,-0.244 1.264,0.449 2.077,1.06 0.814,0.612 2.647,1.508 3.585,2.485 0.938,0.979 1.02,1.183 0.856,1.509 z"
       inkscape:connector-curvature="0" /><path
       id="path345"
       d="m 80.316,14.561 c -0.017,-0.054 -0.056,-0.082 -0.091,-0.113 0.262,0.269 0.457,0.479 0.457,0.479 z"
       inkscape:connector-curvature="0" /></g></svg>