<?xml version="1.0" encoding="UTF-8" standalone="no"?>
<svg
   xmlns:dc="http://purl.org/dc/elements/1.1/"
   xmlns:cc="http://creativecommons.org/ns#"
   xmlns:rdf="http://www.w3.org/1999/02/22-rdf-syntax-ns#"
   xmlns:svg="http://www.w3.org/2000/svg"
   xmlns="http://www.w3.org/2000/svg"
   xmlns:sodipodi="http://sodipodi.sourceforge.net/DTD/sodipodi-0.dtd"
   xmlns:inkscape="http://www.inkscape.org/namespaces/inkscape"
   data-name="Layer 1"
   viewBox="0 0 92.199997 87.800003"
   x="0px"
   y="0px"
   version="1.1"
   id="svg475"
   sodipodi:docname="org-design.svg"
   width="92.199997"
   height="87.800003"
   inkscape:version="0.92.4 (5da689c313, 2019-01-14)">
  <metadata
     id="metadata481">
    <rdf:RDF>
      <cc:Work
         rdf:about="">
        <dc:format>image/svg+xml</dc:format>
        <dc:type
           rdf:resource="http://purl.org/dc/dcmitype/StillImage" />
        <dc:title>04</dc:title>
      </cc:Work>
    </rdf:RDF>
  </metadata>
  <defs
     id="defs479" />
  <sodipodi:namedview
     pagecolor="#ffffff"
     bordercolor="#666666"
     borderopacity="1"
     objecttolerance="10"
     gridtolerance="10"
     guidetolerance="10"
     inkscape:pageopacity="0"
     inkscape:pageshadow="2"
     inkscape:window-width="2560"
     inkscape:window-height="1361"
     id="namedview477"
     showgrid="false"
     fit-margin-top="0"
     fit-margin-left="0"
     fit-margin-right="0"
     fit-margin-bottom="0"
     inkscape:zoom="9.512"
     inkscape:cx="46.1"
     inkscape:cy="31.4"
     inkscape:window-x="1911"
     inkscape:window-y="-9"
     inkscape:window-maximized="1"
     inkscape:current-layer="svg475" />
  <title
     id="title457">04</title>
  <g
     data-name="Group"
     id="g469"
     transform="translate(-3.9,-6.1)">
    <path
       data-name="Compound Path"
       d="m 38.3,10.1 v 15.3 a 4,4 0 0 0 4,4 h 15.4 a 4,4 0 0 0 4,-4 V 10.1 a 4,4 0 0 0 -4,-4 H 42.3 a 4,4 0 0 0 -4,4 z m 8,4 h 7.3 v 7.3 h -7.3 z"
       id="path459"
       inkscape:connector-curvature="0" />
    <path
       data-name="Compound Path"
       d="M 57.7,70.6 H 42.3 a 4,4 0 0 0 -4,4 v 15.3 a 4,4 0 0 0 4,4 h 15.4 a 4,4 0 0 0 4,-4 V 74.6 a 4,4 0 0 0 -4,-4 z m -4,15.3 h -7.4 v -7.3 h 7.3 z"
       id="path461"
       inkscape:connector-curvature="0" />
    <path
       data-name="Compound Path"
       d="M 92.1,70.6 H 76.8 a 4,4 0 0 0 -4,4 v 15.3 a 4,4 0 0 0 4,4 h 15.3 a 4,4 0 0 0 4,-4 V 74.6 a 4,4 0 0 0 -4,-4 z m -4,15.3 h -7.3 v -7.3 h 7.3 z"
       id="path463"
       inkscape:connector-curvature="0" />
    <path
       data-name="Compound Path"
       d="m 7.9,93.9 h 15.3 a 4,4 0 0 0 4,-4 V 74.6 a 4,4 0 0 0 -4,-4 H 7.9 a 4,4 0 0 0 -4,4 v 15.3 a 4,4 0 0 0 4,4 z m 4,-15.3 h 7.3 v 7.3 h -7.3 z"
       id="path465"
       inkscape:connector-curvature="0" />
    <path
       data-name="Path"
       d="m 84.9,68 a 4,4 0 0 0 4,-4 v -5.8 a 14,14 0 0 0 -14,-14 H 54 v -8.7 a 4,4 0 0 0 -8,0 v 8.7 H 25.1 a 14,14 0 0 0 -14,14 V 64 a 4,4 0 0 0 8,0 v -5.8 a 6,6 0 0 1 6,-6 H 46 V 64 a 4,4 0 0 0 8,0 V 52.2 h 20.9 a 6,6 0 0 1 6,6 V 64 a 4,4 0 0 0 4,4 z"
       id="path467"
       inkscape:connector-curvature="0" />
  </g>
</svg>
