<?xml version="1.0" encoding="UTF-8" standalone="no"?>
<svg
   xmlns:dc="http://purl.org/dc/elements/1.1/"
   xmlns:cc="http://creativecommons.org/ns#"
   xmlns:rdf="http://www.w3.org/1999/02/22-rdf-syntax-ns#"
   xmlns:svg="http://www.w3.org/2000/svg"
   xmlns="http://www.w3.org/2000/svg"
   xmlns:sodipodi="http://sodipodi.sourceforge.net/DTD/sodipodi-0.dtd"
   xmlns:inkscape="http://www.inkscape.org/namespaces/inkscape"
   version="1.1"
   x="0px"
   y="0px"
   viewBox="0 0 56 60"
   xml:space="preserve"
   id="svg719"
   sodipodi:docname="technology.svg"
   width="56"
   height="60"
   inkscape:version="0.92.4 (5da689c313, 2019-01-14)"><metadata
     id="metadata725"><rdf:RDF><cc:Work
         rdf:about=""><dc:format>image/svg+xml</dc:format><dc:type
           rdf:resource="http://purl.org/dc/dcmitype/StillImage" /><dc:title></dc:title></cc:Work></rdf:RDF></metadata><defs
     id="defs723" /><sodipodi:namedview
     pagecolor="#ffffff"
     bordercolor="#666666"
     borderopacity="1"
     objecttolerance="10"
     gridtolerance="10"
     guidetolerance="10"
     inkscape:pageopacity="0"
     inkscape:pageshadow="2"
     inkscape:window-width="2560"
     inkscape:window-height="1361"
     id="namedview721"
     showgrid="false"
     fit-margin-top="0"
     fit-margin-left="0"
     fit-margin-right="0"
     fit-margin-bottom="0"
     inkscape:zoom="14.8625"
     inkscape:cx="27"
     inkscape:cy="26.382675"
     inkscape:window-x="1911"
     inkscape:window-y="-9"
     inkscape:window-maximized="1"
     inkscape:current-layer="svg719" /><g
     id="g757"
     transform="translate(-5,-1)"><g
       id="g713"><path
         id="path655"
         d="M 31,14.038 C 24.297,14.55 19,20.168 19,27 c 0,3.137 1.104,6.104 3.127,8.458 L 24.975,32.61 C 23.742,31.07 23,29.122 23,27 c 0,-4.624 3.507,-8.442 8,-8.941 z"
         inkscape:connector-curvature="0" /><path
         id="path657"
         d="m 34.877,20.626 c 0.475,0.664 0.939,1.463 1.315,2.374 h 1.544 C 37.017,21.972 36.03,21.148 34.877,20.626 Z"
         inkscape:connector-curvature="0" /><path
         id="path659"
         d="M 36.615,36.971 35.63,35.228 c -0.58,0.257 -1.189,0.459 -1.826,0.589 l 0.156,1.997 c 0.932,-0.168 1.82,-0.455 2.655,-0.843 z"
         inkscape:connector-curvature="0" /><path
         id="path661"
         d="m 29.206,37.631 c 0.892,0.233 1.817,0.365 2.763,0.368 l -0.157,-2.008 c -0.653,-0.014 -1.288,-0.099 -1.9,-0.245 z"
         inkscape:connector-curvature="0" /><path
         id="path663"
         d="m 37.736,31 h -1.544 c -0.376,0.912 -0.841,1.71 -1.315,2.374 1.153,-0.522 2.14,-1.346 2.859,-2.374 z"
         inkscape:connector-curvature="0" /><path
         id="path665"
         d="M 33.979,23 C 33.339,21.78 32.54,20.869 32,20.339 31.46,20.869 30.661,21.78 30.021,23 Z"
         inkscape:connector-curvature="0" /><path
         id="path667"
         d="m 40.398,34.089 -1.637,-1.168 c -0.421,0.481 -0.893,0.914 -1.407,1.297 l 0.991,1.753 c 0.761,-0.541 1.452,-1.171 2.053,-1.882 z"
         inkscape:connector-curvature="0" /><path
         id="path669"
         d="m 33.979,31 h -3.957 c 0.64,1.221 1.439,2.132 1.979,2.662 0.538,-0.53 1.338,-1.441 1.978,-2.662 z"
         inkscape:connector-curvature="0" /><path
         id="path671"
         d="M 29.123,20.626 C 27.97,21.149 26.982,21.973 26.263,23 h 1.544 c 0.378,-0.912 0.842,-1.71 1.316,-2.374 z"
         inkscape:connector-curvature="0" /><path
         id="path673"
         d="m 25,27 c 0,0.695 0.105,1.366 0.295,2 h 1.903 C 27.073,28.371 27,27.705 27,27 c 0,-0.705 0.073,-1.371 0.197,-2 H 25.294 C 25.105,25.634 25,26.305 25,27 Z"
         inkscape:connector-curvature="0" /><path
         id="path675"
         d="m 27.326,36.949 0.705,-1.884 c -0.585,-0.289 -1.137,-0.636 -1.642,-1.04 l -1.426,1.426 c 0.726,0.606 1.521,1.102 2.363,1.498 z"
         inkscape:connector-curvature="0" /><path
         id="path677"
         d="m 27.808,31 h -1.544 c 0.719,1.028 1.706,1.852 2.86,2.374 C 28.649,32.71 28.185,31.912 27.808,31 Z"
         inkscape:connector-curvature="0" /><path
         id="path679"
         d="m 36.803,25 c 0.124,0.629 0.197,1.295 0.197,2 0,0.705 -0.073,1.371 -0.197,2 h 1.903 C 38.895,28.366 39,27.695 39,27 39,26.305 38.895,25.634 38.705,25 Z"
         inkscape:connector-curvature="0" /><path
         id="path681"
         d="M 29.256,25 C 29.1,25.622 29,26.287 29,27 c 0,0.713 0.1,1.378 0.256,2 h 5.488 C 34.9,28.378 35,27.713 35,27 35,26.287 34.9,25.622 34.744,25 Z"
         inkscape:connector-curvature="0" /><path
         id="path683"
         d="m 41,27 c 0,1.55 -0.394,3.01 -1.087,4.285 l 1.63,1.164 C 42.465,30.84 43,28.983 43,27 43,21.272 38.598,16.558 33,16.051 v 2.008 c 4.493,0.499 8,4.317 8,8.941 z"
         inkscape:connector-curvature="0" /><path
         id="path685"
         d="M 47,33 H 43.521 C 41.349,37.154 37.004,40 32,40 28.864,40 25.904,38.888 23.549,36.865 l -1.448,1.449 -0.707,-0.707 C 20.046,36.259 18.997,34.696 18.256,33.001 H 17 v 24 h 30 z m -28,8 h 2 v 2 h -2 z m 0,4 h 2 v 2 h -2 z m 6,10 h -6 v -6 h 6 z m 0,-8 h -2 v -2 h 2 z m 4,8 h -2 v -2 h 2 z m 0,-4 h -2 v -2 h 2 z m 9,0 c -1.654,0 -3,-1.346 -3,-3 0,-1.654 1.346,-3 3,-3 1.654,0 3,1.346 3,3 0,1.654 -1.346,3 -3,3 z m 5,-3 c 0,-2.757 -2.243,-5 -5,-5 -2.757,0 -5,2.243 -5,5 0,2.757 2.243,5 5,5 v 2 c -3.859,0 -7,-3.14 -7,-7 0,-3.86 3.141,-7 7,-7 3.859,0 7,3.14 7,7 z"
         inkscape:connector-curvature="0" /><path
         id="path687"
         d="m 9,57 h 6 V 33 H 9 Z m 2,-18 h 2 v 12 h -2 z"
         inkscape:connector-curvature="0" /><circle
         id="circle689"
         r="1"
         cy="48"
         cx="38" /><rect
         id="rect691"
         height="2"
         width="46"
         y="59"
         x="9" /><path
         id="path693"
         d="m 49,57 h 6 V 33 h -6 z m 2,-18 h 2 v 12 h -2 z"
         inkscape:connector-curvature="0" /><rect
         id="rect695"
         height="2"
         width="2"
         y="51"
         x="21" /><circle
         id="circle697"
         r="4"
         cy="8"
         cx="55" /><path
         id="path699"
         d="M 13,6.816 V 11 h 16 v 1.317 c 0.605,-0.124 1.218,-0.225 1.848,-0.273 L 31,12.032 V 9 H 29 V 5 H 27 V 9 H 25 V 1 H 23 V 9 H 21 V 7 H 19 V 9 H 15 V 6.816 C 16.161,6.402 17,5.302 17,4 17,2.346 15.654,1 14,1 c -1.654,0 -3,1.346 -3,3 0,1.302 0.839,2.402 2,2.816 z"
         inkscape:connector-curvature="0" /><path
         id="path701"
         d="m 59,17 v 10 h -2 v -6 h -2 v 6 h -2 v -8 h -2 v 8 h -2 v -4 h -2 v 4 h -2 c 0,0.682 -0.068,1.346 -0.169,2 H 61 V 17 Z"
         inkscape:connector-curvature="0" /><path
         id="path703"
         d="m 43,9 h 6 V 7 h -8 v 10.633 c 0.764,0.734 1.433,1.561 2,2.461 z"
         inkscape:connector-curvature="0" /><path
         id="path705"
         d="m 17,27 h -4 v 2 h 4.148 C 17.06,28.339 17,27.673 17,27 Z"
         inkscape:connector-curvature="0" /><path
         id="path707"
         d="M 17.558,23 H 5 v 2 h 12.151 c 0.093,-0.681 0.225,-1.349 0.407,-2 z"
         inkscape:connector-curvature="0" /><path
         id="path709"
         d="M 23.032,15 H 9 v 2 h 11.862 c 0.658,-0.733 1.381,-1.407 2.17,-2 z"
         inkscape:connector-curvature="0" /><path
         id="path711"
         d="m 11,21 h 7.281 c 0.306,-0.692 0.649,-1.365 1.053,-2 H 11 Z"
         inkscape:connector-curvature="0" /></g></g></svg>