<?xml version="1.0" encoding="UTF-8" standalone="no"?>
<svg
   xmlns:dc="http://purl.org/dc/elements/1.1/"
   xmlns:cc="http://creativecommons.org/ns#"
   xmlns:rdf="http://www.w3.org/1999/02/22-rdf-syntax-ns#"
   xmlns:svg="http://www.w3.org/2000/svg"
   xmlns="http://www.w3.org/2000/svg"
   xmlns:sodipodi="http://sodipodi.sourceforge.net/DTD/sodipodi-0.dtd"
   xmlns:inkscape="http://www.inkscape.org/namespaces/inkscape"
   data-name="Layer 1"
   viewBox="0 0 98.346664 95.695435"
   x="0px"
   y="0px"
   version="1.1"
   id="svg42"
   sodipodi:docname="product_management.svg"
   width="98.346664"
   height="95.695435"
   inkscape:version="0.92.4 (5da689c313, 2019-01-14)">
  <metadata
     id="metadata48">
    <rdf:RDF>
      <cc:Work
         rdf:about="">
        <dc:format>image/svg+xml</dc:format>
        <dc:type
           rdf:resource="http://purl.org/dc/dcmitype/StillImage" />
        <dc:title>Artboard 20</dc:title>
      </cc:Work>
    </rdf:RDF>
  </metadata>
  <defs
     id="defs46" />
  <sodipodi:namedview
     pagecolor="#ffffff"
     bordercolor="#666666"
     borderopacity="1"
     objecttolerance="10"
     gridtolerance="10"
     guidetolerance="10"
     inkscape:pageopacity="0"
     inkscape:pageshadow="2"
     inkscape:window-width="1920"
     inkscape:window-height="1001"
     id="namedview44"
     showgrid="false"
     fit-margin-top="0"
     fit-margin-left="0"
     fit-margin-right="0"
     fit-margin-bottom="0"
     inkscape:zoom="6.632"
     inkscape:cx="49.18"
     inkscape:cy="35.391319"
     inkscape:window-x="-9"
     inkscape:window-y="-9"
     inkscape:window-maximized="1"
     inkscape:current-layer="svg42" />
  <title
     id="title30">Artboard 20</title>
  <g
     id="g53"
     transform="translate(-0.82,-2.1958851)">
    <path
       id="path32"
       d="m 22.84,51.85 c 9.28,5.26 18.17,10.25 26,14.58 h 0.08 a 2.19,2.19 0 0 0 2.18,0 c 10.49,-6.31 19.08,-11.78 25,-15.63 0.52,-0.35 0.37,-0.93 -0.34,-1.29 a 2.47,2.47 0 0 0 -2,-0.13 c -5.66,2.86 -13.1,6.71 -21.66,11.37 1,-6.76 0.89,-18.1 -0.24,-24 C 60.32,31.85 68.58,26.7 73.7,23 c 0.24,10.56 0.62,18.69 1,24.87 a 2.43,2.43 0 0 0 1.26,1.74 c 0.58,0.3 1,0.11 1.08,-0.44 0.38,-6.71 0.81,-16.29 1,-29.44 a 2.15,2.15 0 0 0 -1,-1.87 H 76.97 Q 65.69,11 51.31,2.54 a 2.59,2.59 0 0 0 -2.58,0 v 0 c -8.31,4.7 -17.06,9.7 -25.9,14.8 a 2.76,2.76 0 0 0 -1.37,2.38 c 0,10.07 0,20.21 0.11,29.83 v 0 a 2.61,2.61 0 0 0 1.27,2.3 z m 15.55,-37.2 c 4.2,3.81 13.88,9.54 20.18,12 C 55.79,28.16 52.9,29.77 50,31.43 42.13,27 34.26,22.79 28.72,20.27 Z m 9.77,22.11 C 47,42.61 47,53.8 47.9,60.58 41.41,56.68 34.27,52.44 26.82,48.06 26.88,40.06 26.91,31.74 26.91,23.41 32.05,27.08 40,32 48.16,36.75 Z M 50,7.83 Q 61.92,14.57 71.78,20 c -2.62,1.18 -5.81,2.76 -9.31,4.6 C 58.42,20.81 48.64,15 42.25,12.39 Z"
       inkscape:connector-curvature="0" />
    <path
       id="path34"
       d="m 89.22,33.69 a 7.52,7.52 0 0 0 -5.3,6.92 c 0,0.42 0,0.62 0,0.88 v 0.75 1.48 l 0.1,2.87 0.24,5.32 q 0.12,2.35 0.26,4.4 a 7.44,7.44 0 0 0 -3.8,-0.77 7.6,7.6 0 0 0 -4,1.41 7.46,7.46 0 0 0 -0.84,0.69 c -0.26,0.23 -0.36,0.35 -0.55,0.53 l -1,1 -4.09,4.05 c -2.72,2.72 -5.42,5.46 -8,8.14 l -3.8,4 -0.92,1 a 15.31,15.31 0 0 0 -1,1.19 13.69,13.69 0 0 0 -1.61,2.67 13.25,13.25 0 0 0 -1.18,5.68 c 0.06,1.65 0.15,3 0.23,4.45 0.17,2.76 0.37,5.16 0.61,7.08 0,0.27 0.7,0.48 1.47,0.46 0.77,-0.02 1.25,-0.22 1.28,-0.46 0.23,-1.92 0.43,-4.32 0.61,-7.08 L 58.17,86 a 9.21,9.21 0 0 1 2.23,-5.32 c 0.23,-0.26 0.44,-0.48 0.73,-0.75 l 1,-0.92 4,-3.8 c 2.68,-2.6 5.42,-5.3 8.14,-8 l 3.96,-4.21 1,-1 c 0.15,-0.15 0.37,-0.38 0.46,-0.47 a 2.16,2.16 0 0 1 0.25,-0.22 2.31,2.31 0 0 1 1.21,-0.48 2.51,2.51 0 0 1 2.32,1.07 2.69,2.69 0 0 1 -0.08,3.1 l -0.1,0.13 -0.19,0.21 -0.41,0.45 -1.61,1.75 -2.94,3.28 c -1.83,2.08 -3.38,3.92 -4.57,5.44 -0.17,0.21 0.15,0.82 0.7,1.34 0.55,0.52 1,0.7 1.19,0.56 C 77,77 78.82,75.44 80.9,73.61 l 3.28,-2.94 1.75,-1.61 0.45,-0.41 0.24,-0.23 0.31,-0.32 A 7.31,7.31 0 0 0 88,66.6 7.52,7.52 0 0 0 87.8,59.19 l -0.07,-0.1 c 0.17,-2.07 0.33,-4.48 0.47,-7.19 l 0.24,-5.32 0.2,-5.74 a 2.69,2.69 0 0 1 2,-2.34 2.57,2.57 0 0 1 2.83,1.17 2.93,2.93 0 0 1 0.29,0.75 5.69,5.69 0 0 1 0,1.11 v 3.45 7 c 0,4.68 0,9.39 0,14 v 3.35 A 10.49,10.49 0 0 1 93.44,72 10.76,10.76 0 0 1 90.93,76.53 C 85.13,82.57 80.06,88 76.59,92.08 l -0.13,0.15 a 1.44,1.44 0 0 0 -0.35,1 c 0.08,2 0.16,3 0.25,4 0,0.35 0.7,0.62 1.47,0.6 0.77,-0.02 1.25,-0.28 1.28,-0.6 0.08,-0.81 0.15,-1.69 0.22,-3.22 4,-3.47 9.26,-8.33 15.17,-14 a 15.55,15.55 0 0 0 4.64,-10.55 v -3.48 c 0,-4.59 0.06,-9.29 0,-14 v -7 -3.45 a 10.42,10.42 0 0 0 -0.22,-2.29 8.1,8.1 0 0 0 -1,-2.37 A 7.74,7.74 0 0 0 94,33.8 7.63,7.63 0 0 0 89.22,33.69 Z"
       inkscape:connector-curvature="0" />
    <path
       id="path36"
       d="M 0.87,69.46 A 15.55,15.55 0 0 0 5.5,80 c 5.91,5.66 11.17,10.52 15.17,14 0.07,1.53 0.14,2.41 0.22,3.22 0,0.35 0.7,0.62 1.47,0.6 0.77,-0.02 1.25,-0.28 1.28,-0.6 0.09,-0.93 0.17,-2 0.25,-4 a 1.45,1.45 0 0 0 -0.35,-1 L 23.41,92.07 C 19.94,88.07 14.87,82.55 9.07,76.49 A 10.76,10.76 0 0 1 6.56,72 10.49,10.49 0 0 1 6.2,69.35 V 66 c 0,-4.59 0.06,-9.29 0,-14 v -7 -3.45 a 5.69,5.69 0 0 1 0,-1.11 2.93,2.93 0 0 1 0.29,-0.75 2.57,2.57 0 0 1 2.83,-1.17 2.69,2.69 0 0 1 2,2.34 l 0.2,5.74 0.24,5.32 c 0.14,2.71 0.29,5.12 0.47,7.19 l -0.07,0.1 A 7.52,7.52 0 0 0 12,66.6 a 7.31,7.31 0 0 0 1.06,1.49 l 0.31,0.32 0.24,0.23 0.45,0.41 1.75,1.61 3.28,2.94 c 2.09,1.84 3.91,3.4 5.45,4.58 0.21,0.17 0.82,-0.15 1.34,-0.7 0.52,-0.55 0.7,-1 0.55,-1.19 -1.19,-1.52 -2.74,-3.36 -4.57,-5.44 l -2.94,-3.28 -1.61,-1.75 -0.41,-0.45 -0.19,-0.21 -0.1,-0.13 a 2.69,2.69 0 0 1 -0.08,-3.13 2.51,2.51 0 0 1 2.32,-1.07 2.31,2.31 0 0 1 1.21,0.48 2.16,2.16 0 0 1 0.25,0.22 c 0.09,0.08 0.31,0.31 0.46,0.47 l 1,1 4.05,4.09 c 2.72,2.72 5.46,5.42 8.14,8 l 4,3.8 1,0.92 c 0.29,0.28 0.5,0.49 0.73,0.75 a 9.21,9.21 0 0 1 2.23,5.32 l 0.24,4.35 c 0.17,2.76 0.37,5.16 0.61,7.08 0,0.27 0.7,0.48 1.47,0.46 0.77,-0.02 1.25,-0.22 1.28,-0.46 0.23,-1.92 0.43,-4.32 0.61,-7.08 0.08,-1.4 0.17,-2.8 0.23,-4.45 a 13.25,13.25 0 0 0 -1.18,-5.68 13.69,13.69 0 0 0 -1.61,-2.67 15.31,15.31 0 0 0 -1,-1.19 l -0.92,-1 -3.8,-4 c -2.6,-2.68 -5.3,-5.42 -8,-8.14 l -4.09,-4.05 -1,-1 c -0.19,-0.18 -0.3,-0.3 -0.55,-0.53 a 7.45,7.45 0 0 0 -0.84,-0.69 7.6,7.6 0 0 0 -4,-1.41 7.44,7.44 0 0 0 -3.8,0.77 q 0.14,-2 0.26,-4.4 l 0.24,-5.32 0.1,-2.87 v -1.48 -0.75 c 0,-0.26 0,-0.46 0,-0.88 A 7.52,7.52 0 0 0 10.87,33.57 7.63,7.63 0 0 0 6,33.8 7.74,7.74 0 0 0 2.12,36.89 8.1,8.1 0 0 0 1.12,39.26 10.42,10.42 0 0 0 0.9,41.55 L 0.82,45 v 7 c 0,4.68 0,9.39 0,14 z"
       inkscape:connector-curvature="0" />
  </g>
</svg>
