<?xml version="1.0" encoding="UTF-8" standalone="no"?>
<svg
   xmlns:dc="http://purl.org/dc/elements/1.1/"
   xmlns:cc="http://creativecommons.org/ns#"
   xmlns:rdf="http://www.w3.org/1999/02/22-rdf-syntax-ns#"
   xmlns:svg="http://www.w3.org/2000/svg"
   xmlns="http://www.w3.org/2000/svg"
   xmlns:sodipodi="http://sodipodi.sourceforge.net/DTD/sodipodi-0.dtd"
   xmlns:inkscape="http://www.inkscape.org/namespaces/inkscape"
   version="1.1"
   x="0px"
   y="0px"
   viewBox="0 0 579.00001 738.70001"
   xml:space="preserve"
   id="svg277"
   sodipodi:docname="kanban.svg"
   width="579"
   height="738.70001"
   inkscape:version="0.92.4 (5da689c313, 2019-01-14)"><metadata
     id="metadata283"><rdf:RDF><cc:Work
         rdf:about=""><dc:format>image/svg+xml</dc:format><dc:type
           rdf:resource="http://purl.org/dc/dcmitype/StillImage" /><dc:title></dc:title></cc:Work></rdf:RDF></metadata><defs
     id="defs281" /><sodipodi:namedview
     pagecolor="#ffffff"
     bordercolor="#666666"
     borderopacity="1"
     objecttolerance="10"
     gridtolerance="10"
     guidetolerance="10"
     inkscape:pageopacity="0"
     inkscape:pageshadow="2"
     inkscape:window-width="2560"
     inkscape:window-height="1361"
     id="namedview279"
     showgrid="false"
     fit-margin-top="0"
     fit-margin-left="0"
     fit-margin-right="0"
     fit-margin-bottom="0"
     inkscape:zoom="1.1298254"
     inkscape:cx="435.31385"
     inkscape:cy="291.06895"
     inkscape:window-x="1911"
     inkscape:window-y="-9"
     inkscape:window-maximized="1"
     inkscape:current-layer="svg277" /><g
     id="g271"
     transform="translate(-7,-50.3)"><path
       d="M 560.6,50.3 H 32.4 C 18.4,50.3 7,61.7 7,75.7 v 687.9 c 0,14 11.4,25.4 25.4,25.4 h 528.2 c 14,0 25.4,-11.4 25.4,-25.4 V 75.7 c 0,-14 -11.4,-25.4 -25.4,-25.4 z m 6.7,25.4 V 177 H 397.4 V 69 h 163.3 c 3.5,0 6.6,3.1 6.6,6.7 z M 206.3,177 V 69 h 172.3 v 108 z m 172.4,18.7 V 770.2 H 206.3 V 195.7 Z M 32.4,69 H 187.6 V 177 H 25.7 V 75.7 c 0,-3.6 3.1,-6.7 6.7,-6.7 z M 25.7,763.6 V 195.7 H 187.6 V 770.2 H 32.4 c -3.7,0.1 -6.7,-2.9 -6.7,-6.6 z m 534.9,6.7 H 397.4 V 195.7 h 169.9 v 567.9 c 0,3.7 -3,6.7 -6.7,6.7 z"
       id="path211"
       inkscape:connector-curvature="0" /><path
       d="m 446,132.6 23.3,23.7 c 3.2,3.2 7.6,5 12.1,5 0.1,0 0.1,0 0.2,0 4.6,-0.1 9,-2 12.2,-5.3 l 45.6,-48.5 c 5.7,-6.1 5.4,-15.9 -0.7,-21.7 -6.1,-5.8 -15.9,-5.5 -21.7,0.7 l -35.8,38.1 -13.3,-13.5 c -5.9,-6 -15.7,-6.1 -21.7,-0.2 -6,5.9 -6.1,15.7 -0.2,21.7 z"
       id="path213"
       inkscape:connector-curvature="0" /><path
       d="m 287.8,96.1 c -0.3,-1.3 -0.7,-2.6 -1.2,-3.8 -0.2,-0.6 -0.9,-1 -1.5,-1 l -6.5,0.2 c -0.5,-0.8 -1.1,-1.6 -1.7,-2.3 L 279,83 c 0.2,-0.6 0,-1.3 -0.5,-1.8 -1,-0.9 -2.1,-1.6 -3.2,-2.3 -0.6,-0.4 -1.3,-0.3 -1.8,0.1 l -5.1,3.9 c -0.9,-0.4 -1.8,-0.7 -2.8,-0.9 l -1.8,-6.2 c -0.2,-0.7 -0.8,-1.1 -1.5,-1.1 -1,0 -2.9,0 -3.9,0 -0.7,0 -1.3,0.5 -1.5,1.1 l -1.8,6.2 c -1,0.2 -1.9,0.5 -2.8,0.9 L 247.2,79 c -0.5,-0.4 -1.3,-0.4 -1.8,-0.1 -1.1,0.7 -2.2,1.5 -3.2,2.4 -0.5,0.4 -0.7,1.1 -0.5,1.8 l 2.2,6.1 c -0.6,0.7 -1.2,1.5 -1.7,2.3 l -6.5,-0.2 c -0.7,0 -1.3,0.4 -1.5,1 -0.5,1.2 -0.9,2.5 -1.2,3.8 -0.2,0.6 0.1,1.3 0.7,1.7 l 5.3,3.6 c 0,0.5 -0.1,1 -0.1,1.5 0,0.5 0,0.9 0.1,1.5 l -5.3,3.6 c -0.6,0.4 -0.8,1.1 -0.7,1.7 0.3,1.3 0.7,2.6 1.2,3.8 0.2,0.6 0.9,1 1.5,1 l 6.5,-0.2 c 0.5,0.8 1.1,1.6 1.7,2.3 l -2.2,6.1 c -0.2,0.6 0,1.3 0.5,1.8 1,0.9 2.1,1.6 3.2,2.3 0.6,0.4 1.3,0.3 1.8,-0.1 l 5.1,-3.9 c 0.9,0.4 2.8,0.9 2.8,0.9 l 1.8,6.1 c 0.2,0.7 0.8,1.1 1.5,1.1 1,0 2.9,0 3.9,0 0.7,0 1.3,-0.5 1.5,-1.1 l 1.8,-6.1 c 0,0 1.9,-0.5 2.8,-0.9 l 5.1,3.9 c 0.5,0.4 1.3,0.4 1.8,0.1 1.1,-0.7 2.2,-1.5 3.2,-2.3 0.5,-0.4 0.7,-1.1 0.5,-1.8 l -2.2,-6.1 c 0.6,-0.7 1.2,-1.5 1.7,-2.3 l 6.5,0.2 c 0.7,0 1.3,-0.4 1.5,-1 0.5,-1.2 0.9,-2.5 1.2,-3.8 0.2,-0.6 -0.1,-1.3 -0.7,-1.7 l -5.3,-3.6 c 0,-0.5 0.1,-1 0.1,-1.5 0,-0.5 0,-0.9 -0.1,-1.5 l 5.3,-3.6 c 0.7,-0.4 0.9,-1.1 0.8,-1.7 z m -27.4,21.8 c -8.3,0 -15.1,-6.8 -15.1,-15.1 0,-8.3 6.8,-15.1 15.1,-15.1 8.3,0 15.1,6.8 15.1,15.1 0,8.4 -6.8,15.1 -15.1,15.1 z"
       id="path215"
       inkscape:connector-curvature="0" /><path
       d="m 260.4,90.5 c -6.8,0 -12.4,5.6 -12.4,12.4 0,6.8 5.6,12.4 12.4,12.4 6.8,0 12.4,-5.6 12.4,-12.4 0,-6.9 -5.6,-12.4 -12.4,-12.4 z"
       id="path217"
       inkscape:connector-curvature="0" /><path
       d="m 73.9,172.2 h 15.7 c 3.6,0 6.5,-2.9 6.5,-6.5 v -16.4 c 0,-3.6 -2.9,-6.5 -6.5,-6.5 H 73.9 c -3.6,0 -6.5,2.9 -6.5,6.5 v 16.4 c 0,3.6 3,6.5 6.5,6.5 z m 0.2,-22.6 h 15.3 v 16 H 74.1 Z"
       id="path219"
       inkscape:connector-curvature="0" /><path
       d="m 108,156.1 h 38.2 c 1.7,0 3.2,-1.8 3.2,-3.9 0,-2.1 -1.4,-3.9 -3.2,-3.9 H 108 c -1.7,0 -3.2,1.8 -3.2,3.9 0,2.1 1.4,3.9 3.2,3.9 z"
       id="path221"
       inkscape:connector-curvature="0" /><path
       d="m 108,166.9 h 38.2 c 1.7,0 3.2,-1.8 3.2,-3.9 0,-2.2 -1.4,-3.9 -3.2,-3.9 H 108 c -1.7,0 -3.2,1.8 -3.2,3.9 0,2.2 1.4,3.9 3.2,3.9 z"
       id="path223"
       inkscape:connector-curvature="0" /><path
       d="m 73.9,137.2 h 15.7 c 3.6,0 6.5,-2.9 6.5,-6.5 v -16.4 c 0,-3.6 -2.9,-6.5 -6.5,-6.5 H 73.9 c -3.6,0 -6.5,2.9 -6.5,6.5 v 16.4 c 0,3.6 3,6.5 6.5,6.5 z m 0.2,-22.6 h 15.3 v 16 H 74.1 Z"
       id="path225"
       inkscape:connector-curvature="0" /><path
       d="m 108,121.1 h 38.2 c 1.7,0 3.2,-1.8 3.2,-3.9 0,-2.1 -1.4,-3.9 -3.2,-3.9 H 108 c -1.7,0 -3.2,1.8 -3.2,3.9 0,2.1 1.4,3.9 3.2,3.9 z"
       id="path227"
       inkscape:connector-curvature="0" /><path
       d="m 108,131.9 h 38.2 c 1.7,0 3.2,-1.8 3.2,-3.9 0,-2.2 -1.4,-3.9 -3.2,-3.9 H 108 c -1.7,0 -3.2,1.8 -3.2,3.9 0,2.2 1.4,3.9 3.2,3.9 z"
       id="path229"
       inkscape:connector-curvature="0" /><path
       d="m 73.9,101.5 h 15.7 c 3.6,0 6.5,-2.9 6.5,-6.5 V 78.7 c 0,-3.6 -2.9,-6.5 -6.5,-6.5 H 73.9 c -3.6,0 -6.5,2.9 -6.5,6.5 V 95 c 0,3.6 3,6.5 6.5,6.5 z m 0.2,-22.6 h 15.3 v 16 H 74.1 Z"
       id="path231"
       inkscape:connector-curvature="0" /><path
       d="m 108,85.4 h 38.2 c 1.7,0 3.2,-1.8 3.2,-3.9 0,-2.2 -1.4,-3.9 -3.2,-3.9 H 108 c -1.7,0 -3.2,1.8 -3.2,3.9 0,2.1 1.4,3.9 3.2,3.9 z"
       id="path233"
       inkscape:connector-curvature="0" /><path
       d="m 108,96.2 h 38.2 c 1.7,0 3.2,-1.8 3.2,-3.9 0,-2.2 -1.4,-3.9 -3.2,-3.9 H 108 c -1.7,0 -3.2,1.8 -3.2,3.9 0,2.2 1.4,3.9 3.2,3.9 z"
       id="path235"
       inkscape:connector-curvature="0" /><path
       d="m 358.1,137.6 -6.9,-4.7 c 0,-0.7 0.1,-1.3 0.1,-1.9 0,-0.6 0,-1.2 -0.1,-1.9 l 6.9,-4.7 c 0.7,-0.5 1.1,-1.4 0.9,-2.2 -0.4,-1.7 -1,-3.4 -1.6,-4.9 -0.3,-0.8 -1.1,-1.3 -2,-1.3 l -8.4,0.2 c -0.7,-1.1 -1.4,-2.1 -2.2,-3 l 2.8,-7.9 c 0.3,-0.8 0,-1.7 -0.6,-2.3 -1.3,-1.1 -2.7,-2.1 -4.2,-3 -0.7,-0.5 -1.7,-0.4 -2.4,0.1 l -6.6,5.1 c -1.1,-0.5 -2.3,-0.8 -3.6,-1.2 l -2.4,-8 c -0.2,-0.9 -1,-1.4 -1.9,-1.5 -1.3,0 -3.8,0 -5.1,0 -0.9,0 -1.6,0.6 -1.9,1.5 l -2.4,8 c -1.2,0.3 -2.4,0.7 -3.6,1.2 l -6.6,-5.1 c -0.7,-0.5 -1.6,-0.6 -2.4,-0.1 -1.5,0.9 -2.9,1.9 -4.2,3.1 -0.7,0.6 -0.9,1.5 -0.6,2.3 l 2.8,7.9 c -0.8,1 -1.5,2 -2.2,3 l -8.4,-0.2 c -0.9,0 -1.7,0.5 -2,1.3 -0.6,1.5 -1.2,3.2 -1.6,4.9 -0.2,0.8 0.1,1.7 0.8,2.2 l 6.9,4.7 c 0,0.7 -0.1,1.3 -0.1,1.9 0,0.6 0,1.2 0.1,1.9 l -6.9,4.7 c -0.7,0.5 -1.1,1.4 -0.8,2.2 0.4,1.7 1,3.4 1.6,4.9 0.3,0.8 1.1,1.3 2,1.3 l 8.4,-0.2 c 0.7,1.1 1.4,2.1 2.2,3 l -2.8,7.9 c -0.3,0.8 0,1.7 0.6,2.3 1.3,1.1 2.7,2.1 4.2,3.1 0.7,0.5 1.7,0.4 2.4,-0.1 l 6.6,-5.1 c 1.1,0.5 3.6,1.2 3.6,1.2 l 2.3,7.9 c 0.3,0.9 1,1.4 1.9,1.5 1.3,0 3.8,0 5.1,0 0.9,0 1.6,-0.6 1.9,-1.5 l 2.3,-7.9 c 0,0 2.5,-0.7 3.6,-1.2 l 6.6,5.1 c 0.7,0.5 1.6,0.6 2.4,0.1 1.5,-0.9 2.9,-1.9 4.2,-3.1 0.7,-0.6 0.9,-1.5 0.6,-2.3 l -2.8,-7.9 c 0.8,-1 1.5,-2 2.2,-3 l 8.4,0.2 c 0.9,0 1.7,-0.5 2,-1.3 0.6,-1.5 1.2,-3.2 1.6,-4.9 0.4,-1 0,-1.9 -0.7,-2.3 z m -34.7,13 c -10.8,0 -19.6,-8.8 -19.6,-19.6 0,-10.8 8.8,-19.6 19.6,-19.6 10.8,0 19.6,8.8 19.6,19.6 0,10.8 -8.8,19.6 -19.6,19.6 z"
       id="path237"
       inkscape:connector-curvature="0" /><path
       d="m 323.4,114.9 c -8.9,0 -16.1,7.2 -16.1,16.1 0,8.9 7.2,16.1 16.1,16.1 8.9,0 16.1,-7.2 16.1,-16.1 0,-8.9 -7.2,-16.1 -16.1,-16.1 z"
       id="path239"
       inkscape:connector-curvature="0" /><path
       d="m 285.7,147.6 c -0.2,-0.9 -0.5,-1.8 -0.8,-2.6 -0.2,-0.4 -0.6,-0.7 -1,-0.7 l -4.3,0.1 c -0.3,-0.5 -0.7,-1.1 -1.1,-1.6 l 1.4,-4.1 c 0.1,-0.4 0,-0.9 -0.3,-1.2 -0.7,-0.6 -1.4,-1.1 -2.2,-1.6 -0.4,-0.2 -0.9,-0.2 -1.2,0.1 l -3.4,2.6 c -0.6,-0.2 -1.2,-0.4 -1.9,-0.6 l -1.2,-4.1 c -0.1,-0.4 -0.5,-0.7 -1,-0.8 -0.7,0 -1.9,0 -2.6,0 -0.5,0 -0.8,0.3 -1,0.8 l -1.2,4.1 c -0.6,0.2 -1.3,0.4 -1.9,0.6 l -3.4,-2.6 c -0.4,-0.3 -0.9,-0.3 -1.2,-0.1 -0.8,0.5 -1.5,1 -2.2,1.6 -0.3,0.3 -0.5,0.8 -0.3,1.2 l 1.4,4.1 c -0.4,0.5 -0.8,1 -1.1,1.6 l -4.3,-0.1 c -0.4,0 -0.9,0.3 -1,0.7 -0.3,0.8 -0.6,1.7 -0.8,2.5 -0.1,0.4 0.1,0.9 0.4,1.1 l 3.6,2.4 c 0,0.3 0,0.7 0,1 0,0.3 0,0.6 0,1 l -3.6,2.4 c -0.4,0.3 -0.5,0.7 -0.4,1.1 0.2,0.9 0.5,1.8 0.8,2.5 0.2,0.4 0.6,0.7 1,0.7 l 4.3,-0.1 c 0.3,0.5 0.7,1.1 1.1,1.6 l -1.4,4.1 c -0.2,0.4 0,0.9 0.3,1.2 0.7,0.6 1.4,1.1 2.2,1.6 0.4,0.2 0.9,0.2 1.2,-0.1 l 3.4,-2.6 c 0.6,0.2 1.9,0.6 1.9,0.6 l 1.2,4.1 c 0.1,0.4 0.5,0.7 1,0.8 0.7,0 1.9,0 2.6,0 0.5,0 0.9,-0.3 1,-0.8 l 1.2,-4.1 c 0,0 1.3,-0.4 1.9,-0.6 l 3.4,2.6 c 0.4,0.3 0.8,0.3 1.2,0.1 0.8,-0.5 1.5,-1 2.2,-1.6 0.3,-0.3 0.5,-0.8 0.3,-1.2 l -1.4,-4.1 c 0.4,-0.5 0.8,-1 1.1,-1.6 l 4.3,0.1 c 0.5,0 0.9,-0.3 1,-0.7 0.3,-0.8 0.6,-1.7 0.8,-2.5 0.1,-0.4 -0.1,-0.9 -0.4,-1.1 l -3.6,-2.4 c 0,-0.3 0,-0.7 0,-1 0,-0.3 0,-0.6 0,-1 l 3.6,-2.4 c 0.4,-0.1 0.5,-0.6 0.4,-1 z m -18.3,14.7 c -5.6,0 -10.1,-4.5 -10.1,-10.1 0,-5.6 4.5,-10.1 10.1,-10.1 5.6,0 10.1,4.5 10.1,10.1 0,5.6 -4.6,10.1 -10.1,10.1 z"
       id="path241"
       inkscape:connector-curvature="0" /><path
       d="m 267.4,143.9 c -4.6,0 -8.3,3.7 -8.3,8.3 0,4.6 3.7,8.3 8.3,8.3 4.6,0 8.3,-3.7 8.3,-8.3 0,-4.6 -3.8,-8.3 -8.3,-8.3 z"
       id="path243"
       inkscape:connector-curvature="0" /><path
       d="M 148.8,206.1 H 64.6 c -7.1,0 -12.9,5.8 -12.9,12.9 v 46.8 c 0,7.1 5.8,12.9 12.9,12.9 h 84.2 c 7.1,0 12.9,-5.8 12.9,-12.9 V 219 c 0,-7.1 -5.8,-12.9 -12.9,-12.9 z"
       id="path245"
       inkscape:connector-curvature="0" /><path
       d="M 148.8,291.5 H 64.6 c -7.1,0 -12.9,5.8 -12.9,12.9 v 46.8 c 0,7.1 5.8,12.9 12.9,12.9 h 84.2 c 7.1,0 12.9,-5.8 12.9,-12.9 v -46.8 c 0,-7.1 -5.8,-12.9 -12.9,-12.9 z"
       id="path247"
       inkscape:connector-curvature="0" /><path
       d="M 148.8,377 H 64.6 c -7.1,0 -12.9,5.8 -12.9,12.9 v 46.8 c 0,7.1 5.8,12.9 12.9,12.9 h 84.2 c 7.1,0 12.9,-5.8 12.9,-12.9 v -46.8 c 0,-7.1 -5.8,-12.9 -12.9,-12.9 z"
       id="path249"
       inkscape:connector-curvature="0" /><path
       d="M 148.8,462.5 H 64.6 c -7.1,0 -12.9,5.8 -12.9,12.9 v 46.8 c 0,7.1 5.8,12.9 12.9,12.9 h 84.2 c 7.1,0 12.9,-5.8 12.9,-12.9 v -46.8 c 0,-7.1 -5.8,-12.9 -12.9,-12.9 z"
       id="path251"
       inkscape:connector-curvature="0" /><path
       d="m 254.4,278.7 h 84.2 c 7.1,0 12.9,-5.8 12.9,-12.9 V 219 c 0,-7.1 -5.8,-12.9 -12.9,-12.9 h -84.2 c -7.1,0 -12.9,5.8 -12.9,12.9 v 46.8 c 0,7.1 5.8,12.9 12.9,12.9 z"
       id="path253"
       inkscape:connector-curvature="0" /><path
       d="m 254.4,364.2 h 84.2 c 7.1,0 12.9,-5.8 12.9,-12.9 v -46.8 c 0,-7.1 -5.8,-12.9 -12.9,-12.9 h -84.2 c -7.1,0 -12.9,5.8 -12.9,12.9 v 46.8 c 0,7 5.8,12.9 12.9,12.9 z"
       id="path255"
       inkscape:connector-curvature="0" /><path
       d="m 254.4,449.6 h 84.2 c 7.1,0 12.9,-5.8 12.9,-12.9 v -46.8 c 0,-7.1 -5.8,-12.9 -12.9,-12.9 h -84.2 c -7.1,0 -12.9,5.8 -12.9,12.9 v 46.8 c 0,7.1 5.8,12.9 12.9,12.9 z"
       id="path257"
       inkscape:connector-curvature="0" /><path
       d="m 254.4,535.1 h 84.2 c 7.1,0 12.9,-5.8 12.9,-12.9 v -46.8 c 0,-7.1 -5.8,-12.9 -12.9,-12.9 h -84.2 c -7.1,0 -12.9,5.8 -12.9,12.9 v 46.8 c 0,7.1 5.8,12.9 12.9,12.9 z"
       id="path259"
       inkscape:connector-curvature="0" /><path
       d="m 525.4,206.1 h -84.2 c -7.1,0 -12.9,5.8 -12.9,12.9 v 46.8 c 0,7.1 5.8,12.9 12.9,12.9 h 84.2 c 7.1,0 12.9,-5.8 12.9,-12.9 V 219 c 0,-7.1 -5.8,-12.9 -12.9,-12.9 z"
       id="path261"
       inkscape:connector-curvature="0" /><path
       d="m 525.4,291.5 h -84.2 c -7.1,0 -12.9,5.8 -12.9,12.9 v 46.8 c 0,7.1 5.8,12.9 12.9,12.9 h 84.2 c 7.1,0 12.9,-5.8 12.9,-12.9 v -46.8 c 0,-7.1 -5.8,-12.9 -12.9,-12.9 z"
       id="path263"
       inkscape:connector-curvature="0" /><path
       d="m 525.4,377 h -84.2 c -7.1,0 -12.9,5.8 -12.9,12.9 v 46.8 c 0,7.1 5.8,12.9 12.9,12.9 h 84.2 c 7.1,0 12.9,-5.8 12.9,-12.9 v -46.8 c 0,-7.1 -5.8,-12.9 -12.9,-12.9 z"
       id="path265"
       inkscape:connector-curvature="0" /><path
       d="M 148.8,547.9 H 64.6 c -7.1,0 -12.9,5.8 -12.9,12.9 v 46.8 c 0,7.1 5.8,12.9 12.9,12.9 h 84.2 c 7.1,0 12.9,-5.8 12.9,-12.9 v -46.8 c 0,-7.1 -5.8,-12.9 -12.9,-12.9 z"
       id="path267"
       inkscape:connector-curvature="0" /><path
       d="M 148.8,633.4 H 64.6 c -7.1,0 -12.9,5.8 -12.9,12.9 v 46.8 c 0,7.1 5.8,12.9 12.9,12.9 h 84.2 c 7.1,0 12.9,-5.8 12.9,-12.9 v -46.8 c 0,-7.1 -5.8,-12.9 -12.9,-12.9 z"
       id="path269"
       inkscape:connector-curvature="0" /></g></svg>