<?xml version="1.0" encoding="UTF-8" standalone="no"?>
<svg
   xmlns:dc="http://purl.org/dc/elements/1.1/"
   xmlns:cc="http://creativecommons.org/ns#"
   xmlns:rdf="http://www.w3.org/1999/02/22-rdf-syntax-ns#"
   xmlns:svg="http://www.w3.org/2000/svg"
   xmlns="http://www.w3.org/2000/svg"
   xmlns:sodipodi="http://sodipodi.sourceforge.net/DTD/sodipodi-0.dtd"
   xmlns:inkscape="http://www.inkscape.org/namespaces/inkscape"
   height="60.543739"
   width="97.982025"
   version="1.1"
   x="0px"
   y="0px"
   viewBox="0 0 97.982025 60.543739"
   id="svg86"
   sodipodi:docname="noun_coach_68945.svg"
   style="fill:#000000"
   inkscape:version="0.92.4 (5da689c313, 2019-01-14)">
  <metadata
     id="metadata92">
    <rdf:RDF>
      <cc:Work
         rdf:about="">
        <dc:format>image/svg+xml</dc:format>
        <dc:type
           rdf:resource="http://purl.org/dc/dcmitype/StillImage" />
        <dc:title></dc:title>
      </cc:Work>
    </rdf:RDF>
  </metadata>
  <defs
     id="defs90" />
  <sodipodi:namedview
     pagecolor="#ffffff"
     bordercolor="#666666"
     borderopacity="1"
     objecttolerance="10"
     gridtolerance="10"
     guidetolerance="10"
     inkscape:pageopacity="0"
     inkscape:pageshadow="2"
     inkscape:window-width="2560"
     inkscape:window-height="1361"
     id="namedview88"
     showgrid="false"
     fit-margin-top="0"
     fit-margin-left="0"
     fit-margin-right="0"
     fit-margin-bottom="0"
     inkscape:zoom="11.89"
     inkscape:cx="49.079899"
     inkscape:cy="31.259679"
     inkscape:window-x="1911"
     inkscape:window-y="-9"
     inkscape:window-maximized="1"
     inkscape:current-layer="svg86" />
  <g
     transform="translate(-0.9201006,-973.07812)"
     id="g84">
    <g
       id="g82">
      <path
         d="m 9.0514103,1008.2959 c -6.716232,2.7805 -9.90686997,10.4798 -7.127672,17.1954 2.780518,6.7149 10.4798537,9.9062 17.1954267,7.127 6.714254,-2.7799 9.905552,-10.4805 7.126353,-17.1948 -2.779199,-6.7162 -10.479854,-9.9068 -17.1941077,-7.1276 z m 1.7585107,1.7862 c 2.187094,-0.6891 4.451334,-0.6462 6.517106,0.01 l -2.536555,6.1195 c -0.472101,-0.082 -0.95673,-0.082 -1.443996,0 l -2.536555,-6.1268 v 0 z m -1.9128007,0.8004 c 0.0092,-0.01 0.01912,-0.01 0.02769,-0.013 l 2.5444667,6.1472 c -0.375834,0.2829 -0.698261,0.6212 -0.957389,1.0003 l -6.1188527,-2.5366 c 0.97783,-1.9022 2.515455,-3.5289 4.504082,-4.5977 v 0 z m 10.3123767,-0.015 c 1.875877,1.0028 3.461635,2.5642 4.499466,4.5614 l -6.124786,2.5352 c -0.261107,-0.3639 -0.572324,-0.6791 -0.920466,-0.9415 z m -15.5766997,6.5045 6.1485238,2.5485 c -0.05209,0.4127 -0.04022,0.838 0.03231,1.2593 l -6.1261058,2.5373 c -0.66925,-2.1265 -0.654084,-4.3261 -0.05473,-6.3451 v 0 z m 0.840683,8.2236 6.1465457,-2.5438 c 0.272974,0.3593 0.593423,0.6718 0.954752,0.9264 l -2.5464447,6.1327 c -1.888405,-0.9858 -3.495922,-2.5307 -4.554853,-4.5153 z m 13.8610467,-5.7384 6.146546,-2.5438 c 0.660018,2.1739 0.602654,4.4243 -0.05539,6.4716 l -6.118853,-2.5366 c 0.0844,-0.4543 0.09231,-0.9224 0.02769,-1.3912 v 0 z m -4.872004,4.8739 c 0.394297,0.056 0.796506,0.058 1.200693,7e-4 l 2.544467,6.1466 c -2.111928,0.6395 -4.294406,0.6085 -6.293583,0 l 2.548423,-6.1486 z m 4.014837,-1.6213 6.149184,2.5484 c -1.004864,1.8515 -2.551061,3.4175 -4.52716,4.4447 l -2.535895,-6.1247 c 0.350779,-0.248 0.657381,-0.5374 0.913871,-0.8684 z"
         connector-curvature="0"
         style="fill:#000000"
         id="path72"
         inkscape:connector-curvature="0" />
      <path
         d="m 84.180325,1012.8539 c -5.433386,2.2494 -8.014592,8.4781 -5.766239,13.9109 2.24942,5.4324 8.478133,8.0141 13.910986,5.7657 5.431787,-2.2488 8.013528,-8.4786 5.765173,-13.9104 -2.248353,-5.4334 -8.478132,-8.0146 -13.90992,-5.7662 z m 1.422624,1.445 c 1.769345,-0.5575 3.6011,-0.5228 5.272295,0.01 l -2.052055,4.9506 c -0.381927,-0.066 -0.773989,-0.066 -1.168184,0 l -2.052056,-4.9565 v 0 z m -1.547443,0.6475 c 0.0075,-0.01 0.01547,-0.01 0.0224,-0.011 l 2.058457,4.973 c -0.304048,0.2289 -0.564889,0.5025 -0.774522,0.8092 l -4.950111,-2.052 c 0.791057,-1.539 2.034986,-2.8549 3.643772,-3.7196 v 0 z m 8.342644,-0.013 c 1.517573,0.8113 2.800441,2.0745 3.640039,3.6902 l -4.954912,2.051 c -0.211233,-0.2944 -0.463006,-0.5494 -0.74465,-0.7617 z m -12.601446,5.2622 4.974114,2.0616 c -0.04214,0.334 -0.03254,0.678 0.02614,1.0189 l -4.955979,2.0525 c -0.541418,-1.7202 -0.529149,-3.4997 -0.04428,-5.133 v 0 z m 0.680106,6.6527 4.972515,-2.0579 c 0.220835,0.2907 0.480076,0.5436 0.772388,0.7495 l -2.060057,4.9613 c -1.527706,-0.7974 -2.828177,-2.0473 -3.684846,-3.6529 z m 11.213496,-4.6422 4.972515,-2.058 c 0.53395,1.7587 0.487543,3.5792 -0.04481,5.2355 l -4.950112,-2.0521 c 0.06828,-0.3675 0.07468,-0.7462 0.0224,-1.1254 v 0 z m -3.94142,3.9429 c 0.318984,0.045 0.644368,0.047 0.971353,0 l 2.058457,4.9726 c -1.708535,0.5174 -3.474146,0.4923 -5.091467,0 l 2.061657,-4.9742 z m 3.247978,-1.3116 4.974648,2.0616 c -0.812928,1.4978 -2.063791,2.7647 -3.662442,3.5958 l -2.051523,-4.9549 c 0.283778,-0.2006 0.531817,-0.4348 0.739317,-0.7025 z"
         connector-curvature="0"
         style="fill:#000000"
         id="path74"
         inkscape:connector-curvature="0" />
      <path
         d="m 53.042998,973.07812 -26.21875,5.36474 7.21875,36.80584 38.6875,0.08 7.46875,-36.88584 z m -19.75,7.28644 h 12.125 v 14.99998 h -10.09375 z m 14.15625,0 h 12.09375 v 14.99998 h -12 z m 14.09375,0 h 12.09375 l -2.03125,14.99998 h -10.0625 z"
         style="fill:#000000;fill-opacity:1;stroke:none"
         id="path76"
         inkscape:connector-curvature="0" />
      <path
         d="m 12.932331,1004.0915 c 6.392806,-1.1817 12.490061,2.9279 15.896914,8.0662 6.975182,7.4731 17.399017,12.6661 27.790743,10.7764 9.588174,-1.4034 17.88521,-6.8525 25.583471,-12.4003 3.430639,-2.114 7.545543,-3.7961 11.631127,-2.8333"
         style="fill:none;stroke:#000000;stroke-width:4;stroke-linecap:butt;stroke-linejoin:miter;stroke-miterlimit:4;stroke-dasharray:none;stroke-opacity:1"
         stroke-miterlimit="4"
         id="path78"
         inkscape:connector-curvature="0" />
      <path
         style="fill:#000000;fill-opacity:1;stroke:none"
         d="m 81.353378,998.22687 h 15.789474 v 11.72933 H 81.353378 Z"
         id="path80"
         inkscape:connector-curvature="0" />
    </g>
  </g>
</svg>
